<?xml version="1.0" encoding="utf-8"?>
<!-- Generator: Adobe Illustrator 21.1.0, SVG Export Plug-In . SVG Version: 6.00 Build 0)  -->
<svg version="1.1" id="Layer_1" xmlns="http://www.w3.org/2000/svg" xmlns:xlink="http://www.w3.org/1999/xlink" x="0px" y="0px"
	 viewBox="0 0 424.1 424.2" style="enable-background:new 0 0 424.1 424.2;" xml:space="preserve">
<style type="text/css">
	.st0{fill-rule:evenodd;clip-rule:evenodd;fill:url(#SVGID_1_);}
	.st1{fill-rule:evenodd;clip-rule:evenodd;fill:#F26450;}
	.st2{fill-rule:evenodd;clip-rule:evenodd;fill:#FFFFFF;}
</style>
<linearGradient id="SVGID_1_" gradientUnits="userSpaceOnUse" x1="7.7975" y1="12.4382" x2="485.9709" y2="490.6115">
	<stop  offset="0" style="stop-color:#000002"/>
	<stop  offset="1" style="stop-color:#2C0F10"/>
</linearGradient>
<polygon class="st0" points="425,200.6 425.2,212.7 424.1,234.4 421,255.6 415.7,275.9 408.5,295.5 399.6,314.1 389,331.6 
	376.7,347.9 363,363 348,376.7 331.5,389 314,399.7 295.4,408.6 275.8,415.7 255.4,421 234.3,424.2 212.6,425.3 207,425.2 
	201.5,425 196,424.7 190.6,424.2 117.2,350.9 119,352.2 120.5,353.5 122.1,354.7 123.6,355.7 125.2,356.7 126.7,357.7 128.2,358.6 
	129.6,359.4 131.1,360.1 132.6,360.7 134.1,361.4 135.6,361.9 137.2,362.4 138.7,362.7 140.3,363.2 142,363.5 143.5,363.7 
	145.2,363.9 147,364.1 148.8,364.1 150.6,364.2 152.5,364.2 154.5,364.2 156.5,364.1 158.7,364 160.8,363.9 162.6,363.7 129.8,331 
	128.6,330 127.3,328.7 126,327.6 124.6,326.3 123.1,324.9 121.6,323.3 120.1,321.6 118.7,319.7 117.3,317.7 115.8,315.5 
	114.4,313.2 113,310.7 111.7,308.3 110.4,305.7 109.1,303.1 107.8,300.5 106.6,297.7 105.4,295 104.2,292.3 103.1,289.6 
	102.1,286.9 101.8,286.3 43.3,227.7 44,228.4 44.8,229.1 45.6,229.7 46.4,230.3 47.3,230.9 48.1,231.4 49.1,231.9 50,232.3 
	51,232.7 52,233 53,233.3 54,233.5 55.1,233.7 56.1,233.7 57.2,233.9 58.3,234 59.4,233.9 60.5,233.7 61.5,233.7 62.6,233.5 
	63.6,233.3 64.6,233 65.6,232.7 66.6,232.3 67.5,231.9 68.4,231.4 69.3,230.9 70.2,230.3 71,229.7 71.8,229.1 72.6,228.4 
	73.3,227.7 74,227 74.7,226.2 75.3,225.4 76,224.6 76.5,223.7 77,222.7 77.5,221.9 78,221 78.3,220 78.6,219 79,218 79.1,217 
	79.3,215.9 79.4,214.7 79.5,213.7 79.6,212.7 79.5,211.6 79.4,210.5 79.3,209.4 79.1,208.4 79,207.4 78.6,206.4 78.3,205.4 
	78,204.4 77.5,203.5 77,202.5 76.5,201.7 76,200.7 75.3,200 74.7,199.2 74,198.4 73.3,197.6 215,339.3 216,338.4 217.2,337 
	218.5,335.5 219.6,334.1 220.8,332.6 222,331.1 223,329.6 224,328.1 225,326.6 226,325 226.7,323.5 227.5,321.9 228.3,320.3 
	229,318.7 229.7,317.2 230.3,315.5 231,313.9 231.4,312.3 232,310.6 232.3,309 232.6,307.3 233,305.6 233.2,303.9 233.5,302.2 
	233.6,300.5 233.8,298.7 233.8,297 233.8,295.2 233.8,293.4 233.8,291.6 233.6,289.9 233.5,288 233.3,287.1 233.2,286.2 
	233.1,285.3 233,284.3 232.8,283.4 232.7,282.4 232.5,281.5 232.3,280.5 232.1,279.5 232,278.5 231.7,277.5 231.5,276.5 
	231.2,275.5 231,274.5 230.7,273.4 230.4,272.4 230.2,271.3 230,270.3 229.6,269.2 229.3,268.2 229,267.1 228.6,266 228.3,264.9 
	228,263.7 227.6,262.7 227.2,261.6 226.8,260.4 226.4,259.3 226,258.2 225.6,257 225.1,255.7 224.8,255 171.4,201.5 171.6,200.6 
	172,199.7 172.2,198.9 172.5,198.1 172.8,197.2 173.2,196.4 173.5,195.6 174,194.7 174.3,194 174.7,193.2 175.1,192.4 175.6,191.6 
	176,190.7 176.5,190.1 177,189.3 177.5,188.6 178,187.9 178.5,187.2 179.1,186.4 179.6,185.7 180.2,185.1 180.8,184.4 181.4,183.7 
	182,183.1 182.7,182.5 183.3,181.9 184,181.3 184.6,180.7 185.3,180.1 186,179.6 186.7,179 187.4,178.5 187,177.5 186.6,176.6 
	186.2,175.7 185.8,174.7 185.4,173.9 185,173 184.6,172.2 184.2,171.3 184,170.5 183.5,169.6 183.2,168.7 182.8,167.9 182.5,167.1 
	182.2,166.3 182,165.5 181.5,164.7 181.2,164 181,163.2 180.7,162.4 180.4,161.7 180.1,161 179.8,160.2 179.6,159.5 179.3,158.7 
	179.1,158.1 179,157.4 178.6,156.7 178.4,156.1 178.2,155.4 178,154.7 177.8,154.1 177.6,153.5 177.3,152.3 177,151.1 176.6,149.9 
	176.3,148.7 176,147.5 175.7,146.3 175.5,145.1 175.2,143.9 175,142.7 174.7,141.5 174.5,140.3 174.3,139 174.1,137.7 174,136.6 
	173.8,135.3 173.7,134.1 173.6,132.7 173.5,131.5 173.4,130.3 173.4,129 173.4,127.7 173.4,126.4 173.4,125.1 173.5,123.9 
	173.6,122.6 173.7,121.2 173.8,119.9 174,118.6 174.1,117.3 174.3,115.9 174.6,114.6 175,113.3 175.2,112 175.5,110.7 176,109.4 
	176.3,108.1 176.7,106.7 177.2,105.5 177.7,104.2 178.2,103 178.7,101.7 179.3,100.5 180,99.3 180.6,98 181.2,96.7 182,95.6 
	182.6,94.3 183.3,93.2 184.1,92 185,90.7 185.7,89.6 186.5,88.4 187.4,87.2 188.2,86.1 189.1,84.9 190,83.7 191,82.7 192,81.5 
	193,80.4 193.8,79.3 194.8,78.2 195.8,77.1 196.8,76 198,74.9 198.3,74.5 198.7,74.1 199.1,73.7 199.5,73.3 200,72.9 200.4,72.5 
	200.8,72.1 201.3,71.7 201.8,71.3 202.2,70.9 202.7,70.5 203.2,70.1 203.7,69.7 204.2,69.3 204.8,69 205.3,68.6 205.8,68.2 
	206.4,67.7 207,67.4 207.5,67 208.1,66.6 208.7,66.2 209.3,65.7 210,65.4 210.5,65.1 211.1,64.7 211.8,64.3 212.4,63.9 213.1,63.5 
	213.8,63.2 214.4,62.7 215.1,62.4 241.6,88.7 242.4,88.7 243.7,88.7 245,88.6 246.2,88.5 247.5,88.5 249,88.5 250.2,88.6 
	251.6,88.7 253,88.7 254.4,89 255.8,89.2 257.3,89.4 258.8,89.7 260.2,90 261.7,90.3 263.2,90.7 264.6,91.1 266.1,91.5 267.5,92 
	269,92.4 270.4,93 272,93.6 273.3,94.1 274.8,94.7 276.2,95.4 277.7,96.1 279.1,96.7 280.6,97.6 282,98.4 283.4,99.2 285,100.1 
	286.3,101 287.7,101.9 289.2,102.9 290.6,103.9 292,104.9 293.4,106 294.8,107.1 296.2,108.2 297.6,109.4 299,110.6 300.5,111.7 
	302,113.1 303.3,114.4 304.7,115.7 349.1,160.1 361.2,139.7 360.3,138.6 359.4,137.4 358.5,136.2 357.5,135 356.6,133.7 
	355.7,132.6 354.7,131.5 353.8,130.3 353,129.2 352,128.1 351.1,126.9 350.2,125.7 "/>
<path class="st1" d="M212.7,0L212.7,0c39.1,0,72.4,8.9,106.3,28.5c33.9,19.6,58.2,43.9,77.8,77.8c19.6,33.9,28.5,67.2,28.5,106.3
	v0.1l0,0c0,39.1-8.9,72.4-28.5,106.3c-19.6,33.9-43.9,58.2-77.8,77.8c-33.9,19.6-67.2,28.5-106.3,28.5c-39.2,0-72.5-8.9-106.4-28.5
	c-33.9-19.6-58.2-43.9-77.8-77.8C8.9,285.1,0,251.8,0,212.7c0-39.2,8.9-72.5,28.5-106.4c19.6-33.9,43.9-58.2,77.8-77.8
	C140.2,8.9,173.5,0,212.7,0L212.7,0z"/>
<path class="st2" d="M366.9,191.4L366.9,191.4L366.9,191.4c3.9,0,7.3,0.9,10.7,2.8c3.4,2,5.8,4.4,7.8,7.8c1.9,3.4,2.8,6.7,2.8,10.6
	v0.1l0,0c0,3.9-0.9,7.2-2.8,10.6c-2,3.4-4.4,5.8-7.8,7.8c-3.4,2-6.8,2.8-10.7,2.8c-3.9,0-7.2-0.8-10.6-2.8c-3.4-2-5.8-4.4-7.8-7.8
	c-2-3.4-2.8-6.7-2.8-10.7c0-3.9,0.8-7.2,2.8-10.6c2-3.4,4.4-5.8,7.8-7.8C359.7,192.3,363,191.4,366.9,191.4z"/>
<path class="st2" d="M58.3,191.4L58.3,191.4L58.3,191.4c4,0,7.3,0.9,10.7,2.8c3.4,2,5.8,4.4,7.8,7.8c1.9,3.4,2.8,6.7,2.8,10.6v0.1
	l0,0c0,3.9-0.9,7.2-2.8,10.6c-2,3.4-4.4,5.8-7.8,7.8c-3.4,2-6.7,2.8-10.7,2.8c-3.9,0-7.2-0.8-10.6-2.8c-3.4-2-5.8-4.4-7.8-7.8
	c-1.9-3.4-2.8-6.7-2.8-10.7c0-3.9,0.9-7.2,2.8-10.6c2-3.4,4.4-5.8,7.8-7.8C51.1,192.3,54.4,191.4,58.3,191.4z"/>
<path class="st2" d="M212.6,191.4L212.6,191.4L212.6,191.4c3.9,0,7.3,0.9,10.7,2.8c3.4,2,5.8,4.4,7.8,7.8c1.9,3.4,2.8,6.7,2.8,10.6
	v0.1l0,0c0,3.9-0.9,7.2-2.8,10.6c-2,3.4-4.4,5.8-7.8,7.8c-3.4,2-6.8,2.8-10.7,2.8c-3.9,0-7.2-0.8-10.6-2.8c-3.4-2-5.8-4.4-7.8-7.8
	c-1.9-3.4-2.8-6.7-2.8-10.7c0-3.9,0.9-7.2,2.8-10.6c2-3.4,4.4-5.8,7.8-7.8C205.4,192.3,208.7,191.4,212.6,191.4z"/>
<path class="st2" d="M93,260.5c0,0,14.2,48.9,30.2,64.3c15.9,15.4,19.8,15.9,36,15.1c15.2-0.6,24.4-4,35.3-15.2
	c10.8-11.2,15.5-24.5,13.3-39c-1.3-8.1-4.9-19.1-10.9-32.8c4.6,2,10,3.2,14.9,3.4c4.9,0.1,8.9-0.5,13-1.7
	c4.7,12.5,7.6,23.6,8.7,33.4c2.1,19.4-4.2,36.7-18.9,51.8c-14.4,14.9-33,23-55.8,24.2c-23.3,1.3-32.1-3.3-54.6-25.1
	c-9.1-8.8-20.2-22.8-33.1-41.8L93,260.5z M93,260.5L93,260.5L93,260.5z M171.4,201.5c-8.3-16.5-14-29.4-17-38.5
	c-4.8-14-5.5-27.6-3-41c2.6-13.9,8.7-26.2,18.9-36.6c11.2-11.7,26.2-19.3,44.9-23c-7.4,3.9-13.1,8.2-17.3,12.5
	c-11.1,11.4-20,24.3-23,38.3c-3.1,14.4-0.9,27.7,2.8,40.3c1.9,6.6,5.2,15,9.8,25C179.8,184,174,192.2,171.4,201.5z M171.4,201.5
	L171.4,201.5L171.4,201.5z M340.8,174.1l20.5-34.3c-10-13.2-19.7-24.3-29.1-33.5c-24.9-24-48.6-38.3-71.2-42
	c-22.7-3.7-42.3,3.1-58.6,19.9c-14.1,14.6-20,32.5-17.8,47.9c1.4,9.8,6.2,21.5,14.9,40.3c3-0.9,6.2-1.6,9.5-1.8
	c6.1-0.5,12.1,0.3,17.6,2.3c-8.1-18-12.9-31.7-14.5-41.2c-2.3-12.9,0.9-24.1,10-33.5c8.6-8.8,20.8-11.6,36.7-8.6
	c15.7,3,31,11.6,45.9,26.1C323.5,133.8,339.5,174.1,340.8,174.1z M340.8,174.1L340.8,174.1L340.8,174.1z M252.7,226.5
	c-3,8.9-9,16.6-16.7,21.8c2.7,7.2,4.8,13.5,6,18.9c3.2,13.6,3.2,27.9-0.1,42.7c-3.3,14.5-10.8,27.6-22.1,39.3
	c-12.2,12.5-24.1,19.9-35.8,21.9c23.8,2.8,44.5-5.1,62.3-23.5c11.7-12.1,19.3-26,22.5-42c3.2-15.5,2.5-30.5-1.9-44.7
	C264.3,252.6,259.6,241.1,252.7,226.5z"/>
<path class="st2" d="M366.9,191.4L366.9,191.4L366.9,191.4c3.9,0,7.3,0.9,10.7,2.8c3.4,2,5.8,4.4,7.8,7.8c1.9,3.4,2.8,6.7,2.8,10.6
	v0.1l0,0c0,3.9-0.9,7.2-2.8,10.6c-2,3.4-4.4,5.8-7.8,7.8c-3.4,2-6.8,2.8-10.7,2.8c-3.9,0-7.2-0.8-10.6-2.8c-3.4-2-5.8-4.4-7.8-7.8
	c-2-3.4-2.8-6.7-2.8-10.7c0-3.9,0.8-7.2,2.8-10.6c2-3.4,4.4-5.8,7.8-7.8C359.7,192.3,363,191.4,366.9,191.4z"/>
<path class="st2" d="M58.3,191.4L58.3,191.4L58.3,191.4c4,0,7.3,0.9,10.7,2.8c3.4,2,5.8,4.4,7.8,7.8c1.9,3.4,2.8,6.7,2.8,10.6v0.1
	l0,0c0,3.9-0.9,7.2-2.8,10.6c-2,3.4-4.4,5.8-7.8,7.8c-3.4,2-6.7,2.8-10.7,2.8c-3.9,0-7.2-0.8-10.6-2.8c-3.4-2-5.8-4.4-7.8-7.8
	c-1.9-3.4-2.8-6.7-2.8-10.7c0-3.9,0.9-7.2,2.8-10.6c2-3.4,4.4-5.8,7.8-7.8C51.1,192.3,54.4,191.4,58.3,191.4z"/>
<path class="st2" d="M212.6,191.4L212.6,191.4L212.6,191.4c3.9,0,7.3,0.9,10.7,2.8c3.4,2,5.8,4.4,7.8,7.8c1.9,3.4,2.8,6.7,2.8,10.6
	v0.1l0,0c0,3.9-0.9,7.2-2.8,10.6c-2,3.4-4.4,5.8-7.8,7.8c-3.4,2-6.8,2.8-10.7,2.8c-3.9,0-7.2-0.8-10.6-2.8c-3.4-2-5.8-4.4-7.8-7.8
	c-1.9-3.4-2.8-6.7-2.8-10.7c0-3.9,0.9-7.2,2.8-10.6c2-3.4,4.4-5.8,7.8-7.8C205.4,192.3,208.7,191.4,212.6,191.4z"/>
<path class="st2" d="M93,260.5c0,0,14.2,48.9,30.2,64.3c15.9,15.4,19.8,15.9,36,15.1c15.2-0.6,24.4-4,35.3-15.2
	c10.8-11.2,15.5-24.5,13.3-39c-1.3-8.1-4.9-19.1-10.9-32.8c4.6,2,10,3.2,14.9,3.4c4.9,0.1,8.9-0.5,13-1.7
	c4.7,12.5,7.6,23.6,8.7,33.4c2.1,19.4-4.2,36.7-18.9,51.8c-14.4,14.9-33,23-55.8,24.2c-23.3,1.3-32.1-3.3-54.6-25.1
	c-9.1-8.8-20.2-22.8-33.1-41.8L93,260.5z M93,260.5L93,260.5L93,260.5z M171.4,201.5c-8.3-16.5-14-29.4-17-38.5
	c-4.8-14-5.5-27.6-3-41c2.6-13.9,8.7-26.2,18.9-36.6c11.2-11.7,26.2-19.3,44.9-23c-7.4,3.9-13.1,8.2-17.3,12.5
	c-11.1,11.4-20,24.3-23,38.3c-3.1,14.4-0.9,27.7,2.8,40.3c1.9,6.6,5.2,15,9.8,25C179.8,184,174,192.2,171.4,201.5z M171.4,201.5
	L171.4,201.5L171.4,201.5z M340.8,174.1l20.5-34.3c-10-13.2-19.7-24.3-29.1-33.5c-24.9-24-48.6-38.3-71.2-42
	c-22.7-3.7-42.3,3.1-58.6,19.9c-14.1,14.6-20,32.5-17.8,47.9c1.4,9.8,6.2,21.5,14.9,40.3c3-0.9,6.2-1.6,9.5-1.8
	c6.1-0.5,12.1,0.3,17.6,2.3c-8.1-18-12.9-31.7-14.5-41.2c-2.3-12.9,0.9-24.1,10-33.5c8.6-8.8,20.8-11.6,36.7-8.6
	c15.7,3,31,11.6,45.9,26.1C323.5,133.8,339.5,174.1,340.8,174.1z M340.8,174.1L340.8,174.1L340.8,174.1z M252.7,226.5
	c-3,8.9-9,16.6-16.7,21.8c2.7,7.2,4.8,13.5,6,18.9c3.2,13.6,3.2,27.9-0.1,42.7c-3.3,14.5-10.8,27.6-22.1,39.3
	c-12.2,12.5-24.1,19.9-35.8,21.9c23.8,2.8,44.5-5.1,62.3-23.5c11.7-12.1,19.3-26,22.5-42c3.2-15.5,2.5-30.5-1.9-44.7
	C264.3,252.6,259.6,241.1,252.7,226.5z"/>
</svg>
