<?xml version="1.0" encoding="utf-8"?>
<!-- Generator: Adobe Illustrator 21.1.0, SVG Export Plug-In . SVG Version: 6.00 Build 0)  -->
<svg version="1.1" id="Ñëîé_1" xmlns="http://www.w3.org/2000/svg" xmlns:xlink="http://www.w3.org/1999/xlink" x="0px" y="0px"
	 viewBox="0 0 351.7 329.5" style="enable-background:new 0 0 351.7 329.5;" xml:space="preserve">
<style type="text/css">
	.st0{opacity:0.38;}
	.st1{fill:#2C3E50;}
	.st2{opacity:0.5;}
	.st3{opacity:0.9;}
	.st4{fill:#1A2935;}
	.st5{opacity:0.3;fill:#2C3E50;}
	.st6{fill:#FFFFFF;}
	.st7{fill:#D8D8D8;}
	.st8{opacity:0.5;fill:#FFFFFF;}
	.st9{opacity:0.5;fill:url(#SVGID_1_);}
	.st10{opacity:0.5;fill:url(#SVGID_2_);}
	.st11{opacity:0.5;fill:url(#SVGID_3_);}
	.st12{fill:#3E5160;}
	.st13{fill:#354756;}
	.st14{opacity:0.5;fill:url(#SVGID_4_);}
	.st15{opacity:0.5;fill:url(#SVGID_5_);}
	.st16{opacity:0.5;fill:url(#SVGID_6_);}
	.st17{fill:#E0E0E0;}
	.st18{opacity:0.51;}
	.st19{fill:#21303D;}
	.st20{fill:#FF644D;}
	.st21{filter:url(#Adobe_OpacityMaskFilter);}
	.st22{filter:url(#Adobe_OpacityMaskFilter_1_);}
	.st23{mask:url(#SVGID_7_);fill:url(#SVGID_8_);}
	.st24{opacity:0.78;fill:#B2B2B2;}
	.st25{fill:#DBDBDB;}
	.st26{fill:#C6C6C6;}
	.st27{fill:#757575;}
	.st28{fill:#A8A8A8;}
	.st29{fill:#C1C1C1;}
	.st30{opacity:0.2;}
	.st31{clip-path:url(#SVGID_10_);}
	.st32{fill:url(#SVGID_11_);}
	.st33{fill:url(#SVGID_12_);}
	.st34{fill:#0F054C;}
	.st35{opacity:0.5;fill:url(#SVGID_13_);}
	.st36{opacity:0.5;fill:url(#SVGID_14_);}
	.st37{opacity:0.5;fill:url(#SVGID_15_);}
	.st38{opacity:0.5;fill:#FF644D;}
	.st39{filter:url(#Adobe_OpacityMaskFilter_2_);}
	.st40{filter:url(#Adobe_OpacityMaskFilter_3_);}
	.st41{mask:url(#SVGID_16_);fill:url(#SVGID_17_);}
	.st42{opacity:0.5;fill:url(#SVGID_18_);}
	.st43{opacity:0.5;fill:url(#SVGID_19_);}
	.st44{opacity:0.5;fill:url(#SVGID_20_);}
</style>
<g class="st0">
	<polygon class="st1" points="167,313.5 0,217.1 167,120.6 334,217.1 	"/>
</g>
<g class="st2">
	<polygon class="st1" points="167,298.5 25.9,217.1 167,135.6 308.1,217.1 	"/>
</g>
<g class="st3">
	<polygon class="st4" points="167,281.2 56,217.1 167,153 278,217.1 	"/>
</g>
<g>
	<path class="st5" d="M270.6,206.9c-0.2,0-0.3,0-0.5-0.1L219,177.3c-0.3-0.2-0.5-0.5-0.5-0.9c0-0.4,0.2-0.7,0.5-0.9l51.1-29.5
		c0.3-0.2,0.7-0.2,1,0l51.1,29.5c0.3,0.2,0.5,0.5,0.5,0.9c0,0.4-0.2,0.7-0.5,0.9l-51.1,29.5C271,206.9,270.8,206.9,270.6,206.9z
		 M221.5,176.4l49.1,28.4l49.1-28.4L270.6,148L221.5,176.4z"/>
	<polygon class="st6" points="316.7,165.7 316.7,156.4 270.6,181.8 224.6,156.4 224.6,165.7 270.6,192.3 	"/>
	<polygon class="st7" points="270.6,183 224.6,156.4 270.6,129.8 316.7,156.4 	"/>
	<polygon class="st8" points="270.6,182.2 225.2,156 224.6,156.4 270.6,183 316.7,156.4 316.1,156 	"/>
	<polygon class="st1" points="270.6,178.1 233.1,156.4 270.6,134.8 308.1,156.4 	"/>
	<g>
		<linearGradient id="SVGID_1_" gradientUnits="userSpaceOnUse" x1="242.158" y1="156.4149" x2="299.1253" y2="156.4149">
			<stop  offset="0" style="stop-color:#42E8E0"/>
			<stop  offset="0.1507" style="stop-color:#43E3E0"/>
			<stop  offset="0.3285" style="stop-color:#45D5DF"/>
			<stop  offset="0.5199" style="stop-color:#49BDDD"/>
			<stop  offset="0.7209" style="stop-color:#4E9CDB"/>
			<stop  offset="0.9274" style="stop-color:#5472D8"/>
			<stop  offset="1" style="stop-color:#5761D7"/>
		</linearGradient>
		<polygon class="st9" points="270.6,172.9 242.2,156.4 270.6,140 299.1,156.4 		"/>
		<g>
			<linearGradient id="SVGID_2_" gradientUnits="userSpaceOnUse" x1="270.6412" y1="136.6893" x2="299.1253" y2="136.6893">
				<stop  offset="0" style="stop-color:#42E8E0"/>
				<stop  offset="0.1507" style="stop-color:#43E3E0"/>
				<stop  offset="0.3285" style="stop-color:#45D5DF"/>
				<stop  offset="0.5199" style="stop-color:#49BDDD"/>
				<stop  offset="0.7209" style="stop-color:#4E9CDB"/>
				<stop  offset="0.9274" style="stop-color:#5472D8"/>
				<stop  offset="1" style="stop-color:#5761D7"/>
			</linearGradient>
			<polygon class="st10" points="270.6,117 299.1,133.4 299.1,156.4 270.6,140 			"/>
			<linearGradient id="SVGID_3_" gradientUnits="userSpaceOnUse" x1="242.158" y1="136.6891" x2="270.6421" y2="136.6891">
				<stop  offset="0" style="stop-color:#42E8E0"/>
				<stop  offset="0.1507" style="stop-color:#43E3E0"/>
				<stop  offset="0.3285" style="stop-color:#45D5DF"/>
				<stop  offset="0.5199" style="stop-color:#49BDDD"/>
				<stop  offset="0.7209" style="stop-color:#4E9CDB"/>
				<stop  offset="0.9274" style="stop-color:#5472D8"/>
				<stop  offset="1" style="stop-color:#5761D7"/>
			</linearGradient>
			<polygon class="st11" points="270.6,140 242.2,156.4 242.2,133.4 270.6,117 			"/>
			<polygon class="st12" points="270.6,149.9 242.2,133.4 270.6,117 299.1,133.4 			"/>
			<polygon class="st13" points="270.6,149.9 270.6,172.9 299.1,156.4 299.1,133.4 			"/>
		</g>
		<polygon class="st1" points="242.2,133.4 242.2,156.4 270.6,172.9 270.6,149.9 		"/>
	</g>
</g>
<g>
	<polygon class="st6" points="114.7,157.9 114.7,148.6 68.6,174.1 22.6,148.6 22.6,157.9 68.6,184.5 	"/>
	<polygon class="st7" points="68.6,175.2 22.6,148.6 68.6,122 114.7,148.6 	"/>
	<polygon class="st8" points="68.6,174.5 23.2,148.3 22.6,148.6 68.6,175.2 114.7,148.6 114,148.3 	"/>
	<polygon class="st1" points="68.6,170.3 31.1,148.6 68.6,127 106.1,148.6 	"/>
	<g>
		<linearGradient id="SVGID_4_" gradientUnits="userSpaceOnUse" x1="40.1412" y1="148.6487" x2="97.1084" y2="148.6487">
			<stop  offset="0" style="stop-color:#42E8E0"/>
			<stop  offset="0.1507" style="stop-color:#43E3E0"/>
			<stop  offset="0.3285" style="stop-color:#45D5DF"/>
			<stop  offset="0.5199" style="stop-color:#49BDDD"/>
			<stop  offset="0.7209" style="stop-color:#4E9CDB"/>
			<stop  offset="0.9274" style="stop-color:#5472D8"/>
			<stop  offset="1" style="stop-color:#5761D7"/>
		</linearGradient>
		<polygon class="st14" points="68.6,165.1 40.1,148.6 68.6,132.2 97.1,148.6 		"/>
		<g>
			<linearGradient id="SVGID_5_" gradientUnits="userSpaceOnUse" x1="68.6244" y1="128.923" x2="97.1084" y2="128.923">
				<stop  offset="0" style="stop-color:#42E8E0"/>
				<stop  offset="0.1507" style="stop-color:#43E3E0"/>
				<stop  offset="0.3285" style="stop-color:#45D5DF"/>
				<stop  offset="0.5199" style="stop-color:#49BDDD"/>
				<stop  offset="0.7209" style="stop-color:#4E9CDB"/>
				<stop  offset="0.9274" style="stop-color:#5472D8"/>
				<stop  offset="1" style="stop-color:#5761D7"/>
			</linearGradient>
			<polygon class="st15" points="68.6,109.2 97.1,125.6 97.1,148.6 68.6,132.2 			"/>
			<linearGradient id="SVGID_6_" gradientUnits="userSpaceOnUse" x1="40.1412" y1="128.9227" x2="68.6252" y2="128.9227">
				<stop  offset="0" style="stop-color:#42E8E0"/>
				<stop  offset="0.1507" style="stop-color:#43E3E0"/>
				<stop  offset="0.3285" style="stop-color:#45D5DF"/>
				<stop  offset="0.5199" style="stop-color:#49BDDD"/>
				<stop  offset="0.7209" style="stop-color:#4E9CDB"/>
				<stop  offset="0.9274" style="stop-color:#5472D8"/>
				<stop  offset="1" style="stop-color:#5761D7"/>
			</linearGradient>
			<polygon class="st16" points="68.6,132.2 40.1,148.6 40.1,125.6 68.6,109.2 			"/>
			<polygon class="st12" points="68.6,142.1 40.1,125.6 68.6,109.2 97.1,125.6 			"/>
			<polygon class="st13" points="68.6,142.1 68.6,165.1 97.1,148.6 97.1,125.6 			"/>
		</g>
		<polygon class="st1" points="40.1,125.6 40.1,148.6 68.6,165.1 68.6,142.1 		"/>
	</g>
</g>
<g>
	<polygon class="st7" points="167,78.4 99.1,39.2 167,0 234.9,39.2 	"/>
	<path class="st1" d="M167,262c-0.8,0-1.5-0.2-2.2-0.6l-74.3-42.9c-0.5-0.3-0.9-0.9-0.9-1.5c0-0.6,0.3-1.2,0.9-1.5l74.3-42.9
		c1.3-0.8,3.1-0.8,4.5,0l74.3,42.9c0.5,0.3,0.9,0.9,0.9,1.5c0,0.6-0.3,1.2-0.9,1.5l-74.3,42.9C168.6,261.8,167.8,262,167,262z
		 M91.9,217.1l73.9,42.7c0.8,0.4,1.7,0.4,2.5,0l73.9-42.7l-73.9-42.7c-0.7-0.4-1.7-0.4-2.5,0L91.9,217.1z"/>
	<polygon class="st6" points="167,228.9 99.1,189.7 167,150.5 234.9,189.7 	"/>
	<polygon class="st17" points="234.9,39.2 234.9,189.7 167,228.9 167,78.4 	"/>
	<polygon class="st1" points="99.1,39.2 99.1,189.7 167,228.9 167,78.4 	"/>
	<g class="st18">
		<polygon class="st19" points="103.7,49.2 103.7,184.5 162.4,218.4 162.4,83.1 		"/>
	</g>
	<polygon class="st1" points="224.7,75.6 224.7,79.6 177.2,107 177.2,103 	"/>
	<polygon class="st20" points="224.7,92.4 224.7,96.4 177.2,123.8 177.2,119.8 	"/>
	<polygon class="st1" points="224.7,109.2 224.7,113.2 177.2,140.6 177.2,136.7 	"/>
	<polygon class="st20" points="224.7,126 224.7,130 177.2,157.5 177.2,153.5 	"/>
	<polygon class="st1" points="224.7,142.9 224.7,146.8 177.2,174.3 177.2,170.3 	"/>
	<polygon class="st20" points="224.7,159.7 224.7,163.7 177.2,191.1 177.2,187.1 	"/>
	<defs>
		<filter id="Adobe_OpacityMaskFilter" filterUnits="userSpaceOnUse" x="99.1" y="7.8" width="67.9" height="60.4">
			<feFlood  style="flood-color:white;flood-opacity:1" result="back"/>
			<feBlend  in="SourceGraphic" in2="back" mode="normal"/>
		</filter>
	</defs>
	<mask maskUnits="userSpaceOnUse" x="99.1" y="7.8" width="67.9" height="60.4" id="SVGID_7_">
		<g class="st21">
			<defs>
				<filter id="Adobe_OpacityMaskFilter_1_" filterUnits="userSpaceOnUse" x="99.1" y="7.8" width="67.9" height="60.4">
					<feFlood  style="flood-color:white;flood-opacity:1" result="back"/>
					<feBlend  in="SourceGraphic" in2="back" mode="normal"/>
				</filter>
			</defs>
			<mask maskUnits="userSpaceOnUse" x="99.1" y="7.8" width="67.9" height="60.4" id="SVGID_7_">
				<g class="st22">
				</g>
			</mask>
			<linearGradient id="SVGID_8_" gradientUnits="userSpaceOnUse" x1="99.11" y1="37.9351" x2="167.023" y2="37.9351">
				<stop  offset="0" style="stop-color:#000000"/>
				<stop  offset="4.693538e-02" style="stop-color:#2F2F2F"/>
				<stop  offset="9.814870e-02" style="stop-color:#5A5A5A"/>
				<stop  offset="0.155" style="stop-color:#828282"/>
				<stop  offset="0.2161" style="stop-color:#A4A4A4"/>
				<stop  offset="0.2828" style="stop-color:#C0C0C0"/>
				<stop  offset="0.3571" style="stop-color:#D7D7D7"/>
				<stop  offset="0.442" style="stop-color:#E9E9E9"/>
				<stop  offset="0.5443" style="stop-color:#F6F6F6"/>
				<stop  offset="0.6813" style="stop-color:#FDFDFD"/>
				<stop  offset="1" style="stop-color:#FFFFFF"/>
			</linearGradient>
			<polygon class="st23" points="167,68.1 149.2,68.1 99.1,39.2 153.6,7.8 167,7.8 			"/>
		</g>
	</mask>
	<polygon class="st24" points="167,68.1 149.2,68.1 99.1,39.2 153.6,7.8 167,7.8 	"/>
	<g>
		<polygon class="st25" points="167,64.7 117.7,36.2 167,7.8 216.3,36.2 		"/>
		<polygon class="st26" points="216.3,36.2 216.3,39.7 167,68.1 167,64.7 		"/>
		<polygon class="st27" points="117.7,36.2 117.7,39.7 167,68.1 167,64.7 		"/>
	</g>
	<g>
		<g>
			<polygon class="st20" points="147.9,36.7 145.7,35.4 145.9,34.4 166.2,22.6 169,23.9 168.4,24.8 			"/>
			<polygon class="st28" points="166.3,23.6 168.4,24.8 169.8,24 166.3,21.9 144.3,34.6 145.7,35.4 			"/>
		</g>
		<g>
			<polygon class="st20" points="154.5,40.5 152.4,39.2 152.5,38.2 172.8,26.4 175.6,27.7 175.1,28.6 			"/>
			<polygon class="st28" points="172.9,27.4 175.1,28.6 176.5,27.8 172.9,25.7 151,38.4 152.4,39.2 			"/>
		</g>
		<g>
			<polygon class="st20" points="161.2,44.3 159,43 159.2,42 179.4,30.2 182.2,31.6 181.7,32.4 			"/>
			<polygon class="st28" points="179.5,31.2 181.7,32.4 183.1,31.6 179.5,29.6 157.6,42.2 159,43 			"/>
		</g>
		<g>
			<polygon class="st20" points="167.8,48.1 165.6,46.8 165.8,45.8 186,34 188.8,35.4 188.3,36.2 			"/>
			<polygon class="st28" points="186.1,35 188.3,36.2 189.7,35.4 186.1,33.4 164.2,46 165.6,46.8 			"/>
		</g>
	</g>
	<g>
		<path class="st29" d="M164.3,85.2c0-1.7-1.2-3.8-2.7-4.7c-0.8-0.4-1.4-0.5-1.9-0.2l0,0l-1.9,1.1l1.2,0c0,0.2-0.1,0.4-0.1,0.6
			c0,1.7,1.2,3.8,2.7,4.7c0.2,0.1,0.4,0.2,0.6,0.3l-0.6,1l1.9-1.1l0,0C164,86.7,164.3,86.1,164.3,85.2z"/>
		<path class="st7" d="M162.4,86.3c0,1.7-1.2,2.4-2.7,1.6c-1.5-0.9-2.7-3-2.7-4.7c0-1.7,1.2-2.4,2.7-1.6
			C161.2,82.5,162.4,84.6,162.4,86.3z"/>
		<path class="st1" d="M161.3,85.7c0,1-0.7,1.4-1.6,0.9c-0.9-0.5-1.6-1.7-1.6-2.7c0-1,0.7-1.4,1.6-0.9
			C160.6,83.5,161.3,84.7,161.3,85.7z"/>
	</g>
	<g>
		<path class="st29" d="M107.4,50.2c0-1.7-1.2-3.8-2.7-4.7c-0.8-0.4-1.4-0.5-1.9-0.2l0,0l-1.9,1.1l1.2,0c0,0.2-0.1,0.4-0.1,0.6
			c0,1.7,1.2,3.8,2.7,4.7c0.2,0.1,0.4,0.2,0.6,0.3l-0.6,1l1.9-1.1l0,0C107.1,51.7,107.4,51.1,107.4,50.2z"/>
		<path class="st7" d="M105.4,51.3c0,1.7-1.2,2.4-2.7,1.6c-1.5-0.9-2.7-3-2.7-4.7c0-1.7,1.2-2.4,2.7-1.6
			C104.2,47.5,105.4,49.6,105.4,51.3z"/>
		<path class="st1" d="M104.3,50.7c0,1-0.7,1.4-1.6,0.9c-0.9-0.5-1.6-1.7-1.6-2.7c0-1,0.7-1.4,1.6-0.9
			C103.6,48.5,104.3,49.7,104.3,50.7z"/>
	</g>
	<g>
		<path class="st29" d="M164.3,220c0-1.7-1.2-3.8-2.7-4.7c-0.8-0.4-1.4-0.5-1.9-0.2l0,0l-1.9,1.1l1.2,0c0,0.2-0.1,0.4-0.1,0.6
			c0,1.7,1.2,3.8,2.7,4.7c0.2,0.1,0.4,0.2,0.6,0.3l-0.6,1l1.9-1.1l0,0C164,221.5,164.3,220.8,164.3,220z"/>
		<path class="st7" d="M162.4,221.1c0,1.7-1.2,2.4-2.7,1.6c-1.5-0.9-2.7-3-2.7-4.7c0-1.7,1.2-2.4,2.7-1.6
			C161.2,217.3,162.4,219.4,162.4,221.1z"/>
		<path class="st1" d="M161.3,220.4c0,1-0.7,1.4-1.6,0.9c-0.9-0.5-1.6-1.7-1.6-2.7c0-1,0.7-1.4,1.6-0.9
			C160.6,218.2,161.3,219.4,161.3,220.4z"/>
	</g>
	<g>
		<path class="st29" d="M107.4,185c0-1.7-1.2-3.8-2.7-4.7c-0.8-0.4-1.4-0.5-1.9-0.2l0,0l-1.9,1.1l1.2,0c0,0.2-0.1,0.4-0.1,0.6
			c0,1.7,1.2,3.8,2.7,4.7c0.2,0.1,0.4,0.2,0.6,0.3l-0.6,1l1.9-1.1l0,0C107.1,186.5,107.4,185.8,107.4,185z"/>
		<path class="st7" d="M105.4,186.1c0,1.7-1.2,2.4-2.7,1.6c-1.5-0.9-2.7-3-2.7-4.7c0-1.7,1.2-2.4,2.7-1.6
			C104.2,182.3,105.4,184.4,105.4,186.1z"/>
		<path class="st1" d="M104.3,185.4c0,1-0.7,1.4-1.6,0.9c-0.9-0.5-1.6-1.7-1.6-2.7s0.7-1.4,1.6-0.9
			C103.6,183.2,104.3,184.5,104.3,185.4z"/>
	</g>
</g>
<g class="st30">
	<defs>
		<polygon id="SVGID_9_" class="st30" points="103.7,49.2 103.7,184.5 162.4,218.4 162.4,83.1 		"/>
	</defs>
	<clipPath id="SVGID_10_">
		<use xlink:href="#SVGID_9_"  style="overflow:visible;"/>
	</clipPath>
	<g class="st31">
		<linearGradient id="SVGID_11_" gradientUnits="userSpaceOnUse" x1="110.9284" y1="241.2664" x2="176.5904" y2="241.2664">
			<stop  offset="0.2473" style="stop-color:#5761D7"/>
			<stop  offset="0.4363" style="stop-color:#6C74DF"/>
			<stop  offset="0.8245" style="stop-color:#A2A6F5"/>
			<stop  offset="1" style="stop-color:#BCBEFF"/>
		</linearGradient>
		<polygon class="st32" points="203.1,232.6 203.1,223.3 157,248.7 110.9,223.3 110.9,232.6 157,259.2 		"/>
		<linearGradient id="SVGID_12_" gradientUnits="userSpaceOnUse" x1="110.9284" y1="223.3172" x2="203.0764" y2="223.3172">
			<stop  offset="0" style="stop-color:#C0BFF6"/>
			<stop  offset="0.2938" style="stop-color:#C5C4F7"/>
			<stop  offset="0.6399" style="stop-color:#D3D2F9"/>
			<stop  offset="1" style="stop-color:#E9E9FD"/>
		</linearGradient>
		<polygon class="st33" points="157,249.9 110.9,223.3 157,196.7 203.1,223.3 		"/>
		<polygon class="st8" points="157,249.2 111.6,222.9 110.9,223.3 157,249.9 203.1,223.3 202.4,222.9 		"/>
		<polygon class="st34" points="157,245 119.5,223.3 157,201.7 194.5,223.3 		"/>
		<g>
			<linearGradient id="SVGID_13_" gradientUnits="userSpaceOnUse" x1="128.5188" y1="223.3176" x2="185.4861" y2="223.3176">
				<stop  offset="0" style="stop-color:#42E8E0"/>
				<stop  offset="0.1507" style="stop-color:#43E3E0"/>
				<stop  offset="0.3285" style="stop-color:#45D5DF"/>
				<stop  offset="0.5199" style="stop-color:#49BDDD"/>
				<stop  offset="0.7209" style="stop-color:#4E9CDB"/>
				<stop  offset="0.9274" style="stop-color:#5472D8"/>
				<stop  offset="1" style="stop-color:#5761D7"/>
			</linearGradient>
			<polygon class="st35" points="157,239.8 128.5,223.3 157,206.9 185.5,223.3 			"/>
			<g>
				<linearGradient id="SVGID_14_" gradientUnits="userSpaceOnUse" x1="157.002" y1="182.0962" x2="185.4861" y2="182.0962">
					<stop  offset="0" style="stop-color:#42E8E0"/>
					<stop  offset="0.1507" style="stop-color:#43E3E0"/>
					<stop  offset="0.3285" style="stop-color:#45D5DF"/>
					<stop  offset="0.5199" style="stop-color:#49BDDD"/>
					<stop  offset="0.7209" style="stop-color:#4E9CDB"/>
					<stop  offset="0.9274" style="stop-color:#5472D8"/>
					<stop  offset="1" style="stop-color:#5761D7"/>
				</linearGradient>
				<polygon class="st36" points="157,140.9 185.5,157.3 185.5,223.3 157,206.9 				"/>
				<linearGradient id="SVGID_15_" gradientUnits="userSpaceOnUse" x1="128.5188" y1="182.0959" x2="157.0028" y2="182.0959">
					<stop  offset="0" style="stop-color:#42E8E0"/>
					<stop  offset="0.1507" style="stop-color:#43E3E0"/>
					<stop  offset="0.3285" style="stop-color:#45D5DF"/>
					<stop  offset="0.5199" style="stop-color:#49BDDD"/>
					<stop  offset="0.7209" style="stop-color:#4E9CDB"/>
					<stop  offset="0.9274" style="stop-color:#5472D8"/>
					<stop  offset="1" style="stop-color:#5761D7"/>
				</linearGradient>
				<polygon class="st37" points="157,206.9 128.5,223.3 128.5,157.3 157,140.9 				"/>
				<polygon class="st38" points="157,173.8 128.5,157.3 157,140.9 185.5,157.3 				"/>
				<polygon class="st38" points="157,173.8 157,239.8 185.5,223.3 185.5,157.3 				"/>
			</g>
			<polygon class="st38" points="128.5,157.3 128.5,223.3 157,239.8 157,173.8 			"/>
		</g>
		<path class="st38" d="M164.8,161.8c-4.3,2.5-11.3,2.5-15.6,0c-4.3-2.5-4.3-6.5,0-9c4.3-2.5,11.3-2.5,15.6,0
			C169.1,155.3,169.1,159.3,164.8,161.8z"/>
		<defs>
			<filter id="Adobe_OpacityMaskFilter_2_" filterUnits="userSpaceOnUse" x="156.1" y="-29.8" width="1.9" height="188">
				<feFlood  style="flood-color:white;flood-opacity:1" result="back"/>
				<feBlend  in="SourceGraphic" in2="back" mode="normal"/>
			</filter>
		</defs>
		<mask maskUnits="userSpaceOnUse" x="156.1" y="-29.8" width="1.9" height="188" id="SVGID_16_">
			<g class="st39">
				<defs>
					<filter id="Adobe_OpacityMaskFilter_3_" filterUnits="userSpaceOnUse" x="156.1" y="-29.8" width="1.9" height="188">
						<feFlood  style="flood-color:white;flood-opacity:1" result="back"/>
						<feBlend  in="SourceGraphic" in2="back" mode="normal"/>
					</filter>
				</defs>
				<mask maskUnits="userSpaceOnUse" x="156.1" y="-29.8" width="1.9" height="188" id="SVGID_16_">
					<g class="st40">
					</g>
				</mask>
				<linearGradient id="SVGID_17_" gradientUnits="userSpaceOnUse" x1="157.0029" y1="158.2504" x2="157.0029" y2="-29.7731">
					<stop  offset="0" style="stop-color:#FFFFFF"/>
					<stop  offset="0.1048" style="stop-color:#FAFAFA"/>
					<stop  offset="0.2285" style="stop-color:#ECECEC"/>
					<stop  offset="0.3617" style="stop-color:#D4D4D4"/>
					<stop  offset="0.5017" style="stop-color:#B3B3B3"/>
					<stop  offset="0.647" style="stop-color:#888888"/>
					<stop  offset="0.7968" style="stop-color:#545454"/>
					<stop  offset="0.9474" style="stop-color:#171717"/>
					<stop  offset="1" style="stop-color:#000000"/>
				</linearGradient>
				<path class="st41" d="M157,158.3c-0.5,0-0.9-0.4-0.9-0.9V-28.8c0-0.5,0.4-0.9,0.9-0.9s0.9,0.4,0.9,0.9v186.2
					C157.9,157.8,157.5,158.3,157,158.3z"/>
			</g>
		</mask>
		<path class="st20" d="M157,158.3c-0.5,0-0.9-0.4-0.9-0.9V-28.8c0-0.5,0.4-0.9,0.9-0.9s0.9,0.4,0.9,0.9v186.2
			C157.9,157.8,157.5,158.3,157,158.3z"/>
	</g>
</g>
<g>
	<polygon class="st6" points="123.3,277.2 123.3,267.9 77.2,293.3 31.1,267.9 31.1,277.2 77.2,303.8 	"/>
	<polygon class="st7" points="77.2,294.5 31.1,267.9 77.2,241.3 123.3,267.9 	"/>
	<polygon class="st8" points="77.2,293.8 31.8,267.5 31.1,267.9 77.2,294.5 123.3,267.9 122.6,267.5 	"/>
	<polygon class="st1" points="77.2,289.6 39.7,267.9 77.2,246.3 114.7,267.9 	"/>
	<g>
		<linearGradient id="SVGID_18_" gradientUnits="userSpaceOnUse" x1="48.7152" y1="267.9251" x2="105.6825" y2="267.9251">
			<stop  offset="0" style="stop-color:#42E8E0"/>
			<stop  offset="0.1507" style="stop-color:#43E3E0"/>
			<stop  offset="0.3285" style="stop-color:#45D5DF"/>
			<stop  offset="0.5199" style="stop-color:#49BDDD"/>
			<stop  offset="0.7209" style="stop-color:#4E9CDB"/>
			<stop  offset="0.9274" style="stop-color:#5472D8"/>
			<stop  offset="1" style="stop-color:#5761D7"/>
		</linearGradient>
		<polygon class="st42" points="77.2,284.4 48.7,267.9 77.2,251.5 105.7,267.9 		"/>
		<g>
			<linearGradient id="SVGID_19_" gradientUnits="userSpaceOnUse" x1="77.1985" y1="226.7039" x2="105.6825" y2="226.7039">
				<stop  offset="0" style="stop-color:#42E8E0"/>
				<stop  offset="0.1507" style="stop-color:#43E3E0"/>
				<stop  offset="0.3285" style="stop-color:#45D5DF"/>
				<stop  offset="0.5199" style="stop-color:#49BDDD"/>
				<stop  offset="0.7209" style="stop-color:#4E9CDB"/>
				<stop  offset="0.9274" style="stop-color:#5472D8"/>
				<stop  offset="1" style="stop-color:#5761D7"/>
			</linearGradient>
			<polygon class="st43" points="77.2,185.5 105.7,201.9 105.7,267.9 77.2,251.5 			"/>
			<linearGradient id="SVGID_20_" gradientUnits="userSpaceOnUse" x1="48.7152" y1="226.7036" x2="77.1993" y2="226.7036">
				<stop  offset="0" style="stop-color:#42E8E0"/>
				<stop  offset="0.1507" style="stop-color:#43E3E0"/>
				<stop  offset="0.3285" style="stop-color:#45D5DF"/>
				<stop  offset="0.5199" style="stop-color:#49BDDD"/>
				<stop  offset="0.7209" style="stop-color:#4E9CDB"/>
				<stop  offset="0.9274" style="stop-color:#5472D8"/>
				<stop  offset="1" style="stop-color:#5761D7"/>
			</linearGradient>
			<polygon class="st44" points="77.2,251.5 48.7,267.9 48.7,201.9 77.2,185.5 			"/>
			<polygon class="st12" points="77.2,218.4 48.7,201.9 77.2,185.5 105.7,201.9 			"/>
			<polygon class="st13" points="77.2,218.4 77.2,284.4 105.7,267.9 105.7,201.9 			"/>
		</g>
		<polygon class="st1" points="48.7,201.9 48.7,267.9 77.2,284.4 77.2,218.4 		"/>
	</g>
</g>
<path class="st1" d="M167.2,329.5c-1,0-2.1-0.3-3-0.8l-64.6-37.3c-0.3-0.2-0.5-0.5-0.5-0.8v-8.7l-3.9-2.1c-0.5-0.2-0.6-0.8-0.4-1.3
	c0.2-0.5,0.8-0.6,1.3-0.4l4.4,2.4c0.3,0.2,0.5,0.5,0.5,0.8v8.8l64.1,37c1.3,0.7,2.9,0.7,4.1,0l95-54.9c0.4-0.2,0.5-0.6,0.5-0.8
	c0-0.2,0-0.5-0.5-0.8l-55.9-32.2c-0.4-0.3-0.6-0.8-0.3-1.3c0.3-0.4,0.8-0.6,1.3-0.3l55.9,32.2c0.9,0.5,1.4,1.4,1.4,2.4
	c0,1-0.5,1.9-1.4,2.4l-95,54.9C169.3,329.2,168.3,329.5,167.2,329.5z"/>
<g>
	<polygon class="st20" points="130.3,113.7 133.5,115.6 133.5,113.4 130.3,111.5 	"/>
	<polygon class="st20" points="130.3,128.3 133.5,130.2 133.5,117.5 130.3,115.7 	"/>
	<polygon class="st20" points="130.3,135.3 133.5,137.2 133.5,132.2 130.3,130.3 	"/>
	<polygon class="st20" points="130.3,142.6 133.5,144.5 133.5,139.4 130.3,137.6 	"/>
	<polygon class="st20" points="125.5,117.9 128.7,119.8 128.7,114.8 125.5,112.9 	"/>
	<polygon class="st20" points="125.5,127.5 128.7,129.4 128.7,122 125.5,120.2 	"/>
	<polygon class="st20" points="125.5,136.4 128.7,138.3 128.7,131.9 125.5,130.1 	"/>
	<polygon class="st20" points="130.3,149.9 133.5,151.7 133.5,146.7 130.3,144.8 	"/>
	<polygon class="st20" points="125.5,110.9 128.7,112.8 128.7,110.6 125.5,108.8 	"/>
</g>
<polygon class="st20" points="127.9,155.5 133.5,158.8 133.5,156.7 127.9,153.4 "/>
<path class="st5" d="M257.2,278.4c-0.3,0-0.7-0.2-0.9-0.5c-0.3-0.5-0.1-1.1,0.4-1.4l92-53.1l-53.6-31c-0.5-0.3-0.6-0.9-0.4-1.4
	c0.3-0.5,0.9-0.6,1.4-0.4l55.1,31.9c0.3,0.2,0.5,0.5,0.5,0.9c0,0.4-0.2,0.7-0.5,0.9l-93.5,54C257.6,278.4,257.4,278.4,257.2,278.4z"
	/>
</svg>
