<?xml version="1.0" encoding="utf-8"?>
<!-- Generator: Adobe Illustrator 21.1.0, SVG Export Plug-In . SVG Version: 6.00 Build 0)  -->
<svg version="1.1" id="Ñëîé_1" xmlns="http://www.w3.org/2000/svg" xmlns:xlink="http://www.w3.org/1999/xlink" x="0px" y="0px"
	 viewBox="0 0 358.1 290.4" style="enable-background:new 0 0 358.1 290.4;" xml:space="preserve">
<style type="text/css">
	.st0{fill:#FF644D;}
	.st1{fill:#E5E5E5;}
	.st2{fill:#354651;}
	.st3{fill:#FFFFFF;}
	.st4{fill:#1A2935;}
	.st5{fill:#A5A5A5;}
	.st6{opacity:0.51;}
	.st7{fill:#253642;}
	.st8{fill:#C6C6C6;}
	.st9{fill:#DBDBDB;}
	.st10{fill:#D1D1D1;}
	.st11{fill:#A8A8A8;}
	.st12{opacity:0.11;}
	.st13{clip-path:url(#SVGID_1_);}
	.st14{fill:url(#SVGID_2_);}
	.st15{fill:url(#SVGID_3_);}
	.st16{fill:#9198DB;}
	.st17{fill:#ADB1F2;}
	.st18{fill:#24126A;}
	.st19{filter:url(#Adobe_OpacityMaskFilter);}
	.st20{filter:url(#Adobe_OpacityMaskFilter_1_);}
	.st21{mask:url(#SVGID_4_);fill:url(#SVGID_5_);}
	.st22{fill:url(#Path_1_1_);}
	.st23{fill:#F26450;}
</style>
<g>
	<path class="st0" d="M289.1,248.8c-0.2,0-0.4-0.1-0.6-0.2c-0.3-0.3-0.3-0.8,0.1-1.1c17.9-16,26.2-34.6,24.3-53.7
		c-2.3-21.8-18.3-42.4-45.2-57.9c-1.8-1-3.6-2-5.5-3c-0.4-0.2-0.5-0.6-0.3-1c0.2-0.4,0.6-0.5,1-0.3c1.9,1,3.7,2,5.5,3
		c27.3,15.8,43.6,36.7,45.9,59c2,19.6-6.5,38.6-24.7,54.9C289.4,248.8,289.3,248.8,289.1,248.8z"/>
	<path class="st0" d="M157.1,290.4c-41.5,0-81.1-9.4-110.9-26.6C16.4,246.6,0,223.7,0,199.2c0-24.4,16.4-47.4,46.2-64.6
		c42.5-24.5,104.3-32.9,161.3-21.8c0.4,0.1,0.7,0.5,0.6,0.9c-0.1,0.4-0.5,0.7-0.9,0.6c-56.7-11-118.1-2.7-160.3,21.7
		c-29.3,16.9-45.5,39.4-45.5,63.3c0,23.9,16.2,46.3,45.5,63.3c33.7,19.5,80.2,28.9,127.7,25.8c0.4,0,0.8,0.3,0.8,0.7
		c0,0.4-0.3,0.8-0.7,0.8C168.9,290.2,163,290.4,157.1,290.4z"/>
	<g>
		<path class="st1" d="M206.2,96.9L206.2,96.9l0-30.4c0,0-44.7-3.8-47.3-3.8c-2.6,0-48.8,4-48.8,4v30.3c0,0.2,0,0.5,0.2,0.7
			c0.2,0.4,0.6,0.7,1,1c1,0.6,2.6,0.9,4.1,0.6c27.9-4.9,57.5-4.9,85.5-0.1c2.2,0.4,4.5-0.3,5.2-1.6
			C206.2,97.4,206.2,97.2,206.2,96.9z"/>
		<g>
			<path class="st2" d="M111.3,68.4c-0.5-0.3-0.8-0.6-1-1c-0.7-1.3,0.6-2.6,2.8-3c29.5-5.1,60.7-5.2,90.2-0.1c2.2,0.4,3.5,1.7,2.8,3
				c-0.7,1.3-3,2-5.2,1.6c-28-4.8-57.5-4.7-85.5,0.1C113.9,69.3,112.3,69,111.3,68.4z"/>
		</g>
	</g>
	<g>
		<path class="st1" d="M309.7,156.8v-24.4l-29.3-35.7l-17.9-8l0,30.5c0,0,0,0,0,0.1v0l0,0c0,0.6,0.4,1.2,1.2,1.6
			c25.4,14.7,40,33.8,42.9,53.5c2.3-3.2,4.6-6.6,6.1-10.2C311.9,161.8,310.9,159.3,309.7,156.8z"/>
		<path class="st1" d="M315.6,180.3l0-30.3l-5.9,10.3l-7,16.8l-9.5,14.1l-4.9,2.8v30.3c0,0,0,0,0,0v0l0,0c0,0.6,0.4,1.2,1.2,1.7
			c0.3,0.2,0.6,0.3,0.9,0.4c2,0.6,4.5,0.2,5.6-0.9C309.3,211.8,316,196.1,315.6,180.3L315.6,180.3z"/>
		<g>
			<path class="st2" d="M289.6,195.7c-1.3-0.7-1.6-1.9-0.7-2.9c31.9-33.3,21.5-75.4-25.1-102.3c-1.6-0.9-1.6-2.5,0-3.4
				s4.3-0.9,5.9,0c24.6,14.2,40,32.2,44.6,52c4.5,19.2-2,39.1-18.1,56c-1.1,1.2-3.6,1.6-5.6,0.9C290.1,196,289.8,195.8,289.6,195.7z
				"/>
		</g>
		<path class="st3" d="M314.3,139.2c-4.6-19.9-20-37.8-44.6-52c-0.9-0.5-2-0.7-3.1-0.7c1,0,2,0.2,2.8,0.7c24.6,14.2,40,32.2,44.6,52
			c4.5,19.2-2,39.1-18.1,56c-0.7,0.7-1.9,1.2-3.3,1.2c1.4,0,2.8-0.4,3.6-1.2C312.3,178.3,318.7,158.4,314.3,139.2z"/>
	</g>
	<g>
		<path class="st1" d="M99.8,101L99.8,101l0-30.3l-18.8,5.2l-15.4,4.9c0,0-10.5,6.1-10.9,6.3c-0.5,0.2-8.8,4.9-8.8,4.9l-12.2,6.7
			l-8.3,8.1c0,0-7,9.4-7.3,9.5c-0.3,0.1-15,21.3-15,21.3v30.4l0,0c0,0.6,0.5,1.2,1.2,1.6c0.6,0.3,1.4,0.6,2.3,0.7
			c2.3,0.2,4.4-0.7,4.7-2c4.9-18.1,19.3-34.5,41.8-47.5c12.8-7.4,27.7-13.3,44.1-17.6C98.9,102.9,99.9,101.9,99.8,101z"/>
		<g>
			<path class="st2" d="M4.4,139.3c-0.9-0.5-1.4-1.3-1.2-2.1c5.2-19.1,20.4-36.4,44.1-50.1C60.9,79.3,76.6,73,93.9,68.5
				c2.1-0.5,4.5,0,5.5,1.2c0.9,1.2,0,2.6-2.1,3.2c-16.4,4.3-31.3,10.2-44.1,17.6c-22.5,13-36.9,29.4-41.8,47.5
				c-0.4,1.3-2.5,2.2-4.7,2C5.8,139.9,5,139.7,4.4,139.3z"/>
		</g>
		<path class="st3" d="M3.7,137.7c5.2-19.1,20.4-36.4,44.1-50.1C61.4,79.8,77.1,73.5,94.4,69c1.8-0.5,3.9-0.1,5,0.8c0,0,0,0,0,0
			c-0.9-1.2-3.4-1.7-5.5-1.2c-17.3,4.5-33,10.8-46.6,18.6c-23.7,13.7-39,31-44.1,50.1C3,137.9,3.3,138.5,4,139
			C3.7,138.6,3.6,138.2,3.7,137.7z"/>
	</g>
	<g>
		<g>
			<g>
				<g>
					<path class="st4" d="M136.8,246c-1.9,0-3.8-0.5-5.4-1.5l-68.8-39.7c-0.7-0.4-1.2-1.2-1.2-2c0-0.9,0.4-1.6,1.2-2L186.8,129
						l74.3,42.9c0.7,0.4,1.2,1.2,1.2,2c0,0.9-0.4,1.6-1.2,2l-118.9,68.6C140.5,245.6,138.6,246,136.8,246z M186.8,130.7L63.3,202.1
						c-0.4,0.2-0.4,0.6-0.4,0.7s0,0.5,0.4,0.7l68.8,39.7c2.9,1.7,6.5,1.7,9.4,0l118.9-68.6c0.4-0.2,0.4-0.6,0.4-0.7
						c0-0.1,0-0.5-0.4-0.7L186.8,130.7z"/>
				</g>
				<g>
					<g>
						<path class="st1" d="M187,100.1L170.4,1.9l1.3-0.6l-2-1.1l0,0c-0.4-0.3-0.9-0.2-1.5,0.1L35.8,76.7c-1.1,0.6-1.9,2.2-1.7,3.4
							l16.7,99.1c0.1,0.5,0.3,0.9,0.7,1l0,0l2,1.1l0.3-1.8l-0.1,0l131.6-76C186.4,102.9,187.2,101.3,187,100.1z"/>
						<path class="st5" d="M36.6,79.4l-2.2-1c-0.2,0.6-0.4,1.1-0.3,1.6l16.7,99.1c0.1,0.5,0.3,0.9,0.7,1l0,0l2,1.1l0.3-1.8l-0.1,0
							l6.7-3.8L36.6,79.4z"/>
						<path class="st4" d="M187.3,104.7L55,181.1c-1,0.6-1.9,0.2-2.1-0.8L36.2,81.3c-0.2-1.1,0.6-2.7,1.7-3.4L170.3,1.5
							c1-0.6,1.9-0.2,2.1,0.8l16.7,99.1C189.3,102.5,188.4,104.1,187.3,104.7z"/>
						<g class="st6">
							<polygon class="st7" points="168.6,7.8 41,81.5 56.8,174.8 184.3,101.1 							"/>
						</g>
					</g>
					<g>
						<path class="st8" d="M270.6,151.6l-7.2,3.8l-72.4-41.8c-1.2-0.7-3.3-0.6-4.7,0.2L61.2,185.9c-1.2-0.7-6.6-3.3-6.6-3.3l2.6,6.9
							c0,0,0,0,0,0c0.1,0.3,0.3,0.6,0.7,0.8l76.3,44.1c1.2,0.7,3.3,0.6,4.7-0.2l127.9-73.8c0.6-0.3,0.9-0.7,1.1-1.1l0,0L270.6,151.6
							z"/>
						<path class="st9" d="M269.4,152.8l-131,75.7c-1.4,0.8-3.6,0.9-4.8,0.2l-78.2-45.1c-1.2-0.7-1.1-2,0.3-2.8l131-75.7
							c1.4-0.8,3.6-0.9,4.8-0.2l78.2,45.1C271,150.7,270.9,152,269.4,152.8z"/>
						<path class="st4" d="M98.9,212.1v-1.4c0-0.1,0.1-0.2,0.2-0.1l5.1,2.9c0.1,0.1,0.2,0.2,0.2,0.4v1.4c0,0.1-0.1,0.2-0.2,0.1
							l-5.1-2.9C99,212.4,98.9,212.2,98.9,212.1z"/>
						<path class="st4" d="M106.5,216.5V215c0-0.1,0.1-0.2,0.2-0.1l5.1,2.9c0.1,0.1,0.2,0.2,0.2,0.4v1.4c0,0.1-0.1,0.2-0.2,0.1
							l-5.1-2.9C106.5,216.7,106.5,216.6,106.5,216.5z"/>
						<path class="st10" d="M75.8,179.3l108.9-62.9c0.7-0.4,1.6-0.4,2.3,0l38.8,22.4c0.6,0.3,0.6,1.1,0,1.4l-108.8,62.8
							c-0.7,0.4-1.6,0.4-2.3,0l-38.8-22.4C75.2,180.4,75.2,179.6,75.8,179.3z"/>
						<path class="st11" d="M75.8,180.7l0.4,0.2l108.5-62.6c0.7-0.4,1.6-0.4,2.3,0l38.4,22.2l0.4-0.2c0.6-0.3,0.6-1.1,0-1.4
							L187,116.4c-0.7-0.4-1.6-0.4-2.3,0L75.8,179.3C75.2,179.6,75.2,180.4,75.8,180.7z"/>
						<g>
							<polygon class="st0" points="189.9,122.1 95.3,176.7 91.1,174.3 185.7,119.7 							"/>
							<polygon class="st0" points="200.2,128 111.5,179.3 107.3,176.8 196,125.6 							"/>
							<polygon class="st0" points="206.9,131.9 102.5,192.2 98.3,189.8 202.7,129.5 							"/>
							<polygon class="st0" points="213.7,135.8 109.2,196.1 105,193.7 209.5,133.4 							"/>
							<polygon class="st0" points="220.4,139.7 115.9,200 111.7,197.5 216.2,137.2 							"/>
							<polygon class="st4" points="89.6,180 85.4,182.4 81.2,180 85.4,177.6 							"/>
							<polygon class="st0" points="104.4,183.3 95.7,188.4 91.5,185.9 100.2,180.9 							"/>
						</g>
						<path class="st10" d="M188.8,194.5l29.4-17c1.1-0.7,1.1-1.7,0-2.4l-20.1-11.6c-1.1-0.7-3-0.7-4.2,0l-29.4,17
							c-1.1,0.7-1.1,1.7,0,2.4l20.1,11.6C185.8,195.1,187.7,195.1,188.8,194.5z"/>
						<path class="st11" d="M164.6,181.5l29.4-17c1.1-0.7,3-0.7,4.2,0l20.1,11.6c0.4,0.2,0.6,0.5,0.7,0.7c0.3-0.6,0.1-1.2-0.7-1.7
							l-20.1-11.6c-1.1-0.7-3-0.7-4.2,0l-29.4,17c-0.8,0.5-1,1.1-0.7,1.7C164,181.9,164.3,181.7,164.6,181.5z"/>
					</g>
				</g>
				<g class="st12">
					<defs>
						<polygon id="SVGID_9_" class="st12" points="168.6,7.8 41,81.5 56.8,174.8 184.3,101.1 						"/>
					</defs>
					<clipPath id="SVGID_1_">
						<use xlink:href="#SVGID_9_"  style="overflow:visible;"/>
					</clipPath>
					<g class="st13">
						<linearGradient id="SVGID_2_" gradientUnits="userSpaceOnUse" x1="44.5832" y1="118.8451" x2="260.6886" y2="118.8451">
							<stop  offset="0" style="stop-color:#C0BFF6"/>
							<stop  offset="0.2938" style="stop-color:#C5C4F7"/>
							<stop  offset="0.6399" style="stop-color:#D3D2F9"/>
							<stop  offset="1" style="stop-color:#E9E9FD"/>
						</linearGradient>
						<path class="st14" d="M186.9,104.9l-131,75.7c-1.4,0.8-3.6,0.9-4.8,0.2l-78.2-45.1c-1.2-0.7-1.1-2,0.3-2.8l131-75.7
							c1.4-0.8,3.6-0.9,4.8-0.2l78.2,45.1C188.5,102.8,188.3,104.1,186.9,104.9z"/>
						<linearGradient id="SVGID_3_" gradientUnits="userSpaceOnUse" x1="30.3599" y1="102.9814" x2="85.6768" y2="102.9814">
							<stop  offset="0" style="stop-color:#C0BFF6"/>
							<stop  offset="0.2938" style="stop-color:#C5C4F7"/>
							<stop  offset="0.6399" style="stop-color:#D3D2F9"/>
							<stop  offset="1" style="stop-color:#E9E9FD"/>
						</linearGradient>
						<path class="st15" d="M55.5,118.5l29.4-17c1.1-0.7,1.1-1.7,0-2.4L64.7,87.5c-1.1-0.7-3-0.7-4.2,0l-29.4,17
							c-1.1,0.7-1.1,1.7,0,2.4l20.1,11.6C52.4,119.1,54.3,119.1,55.5,118.5z"/>
						<path class="st16" d="M31.2,105.4l29.4-17c1.1-0.7,3-0.7,4.2,0l20.1,11.6c0.4,0.2,0.6,0.5,0.7,0.7c0.3-0.6,0.1-1.2-0.7-1.7
							L64.7,87.5c-1.1-0.7-3-0.7-4.2,0l-29.4,17c-0.8,0.5-1,1.1-0.7,1.7C30.6,105.9,30.9,105.6,31.2,105.4z"/>
						<g>
							<path class="st17" d="M18.3,144.9l108.9-62.9c0.7-0.4,1.6-0.4,2.3,0l38.8,22.4c0.6,0.3,0.6,1.1,0,1.4L59.5,168.8
								c-0.7,0.4-1.6,0.4-2.3,0l-38.8-22.4C17.8,146.1,17.8,145.3,18.3,144.9z"/>
							<path class="st16" d="M18.3,146.4l0.4,0.2L127.2,84c0.7-0.4,1.6-0.4,2.3,0l38.4,22.2l0.4-0.2c0.6-0.3,0.6-1.1,0-1.4
								l-38.8-22.4c-0.7-0.4-1.6-0.4-2.3,0L18.3,144.9C17.8,145.3,17.8,146.1,18.3,146.4z"/>
							<g>
								<polygon class="st18" points="158.2,103 63.3,157.8 67.1,159.9 161.9,105.2 								"/>
								<polygon class="st18" points="148.2,97.2 58,149.3 61.8,151.4 151.9,99.4 								"/>
								<polygon class="st18" points="51.3,153.2 42.9,158 46.6,160.2 55,155.3 								"/>
								<polygon class="st18" points="58.7,160.4 52.9,163.8 56.6,166 62.5,162.6 								"/>
								<polygon class="st18" points="141.9,93.6 36.6,154.4 40.4,156.6 145.7,95.8 								"/>
								<polygon class="st18" points="135.7,90 30.3,150.8 34.1,153 139.4,92.1 								"/>
								<polygon class="st18" points="129.4,86.4 24.1,147.2 27.8,149.3 133.2,88.5 								"/>
							</g>
						</g>
					</g>
				</g>
			</g>
		</g>
	</g>
	<g>
		<path class="st1" d="M175.2,269.6L175.2,269.6l0-30.4l-21.6,0.9l-21.8-3.2l-17.8-2.3l-12.6-2.4l-19.8-5l-21.9-8.3l-11.5-8.2
			l-18.7-12.6l-6.2-7.4l-11-16.5l-4.8-15.4l-5.3,1v30.5l0,0c0,0.1,0,0.2,0,0.2c3.5,20.9,19.6,40.6,45.3,55.4
			c32.7,18.9,77.9,28.4,124,26.3C173.6,272,175.3,270.9,175.2,269.6z"/>
		<g>
			<path class="st2" d="M47.4,215.4C21.6,200.6,5.5,180.9,2.1,160c-0.2-1.3,1.5-2.5,3.7-2.6c2.3-0.1,4.3,0.8,4.5,2.2
				c3.3,19.8,18.5,38.4,42.9,52.5c31,17.9,73.8,26.9,117.5,24.9c2.3-0.1,4.3,0.9,4.5,2.2c0.2,1.3-1.5,2.5-3.8,2.6
				C125.2,243.9,80.1,234.3,47.4,215.4z"/>
		</g>
		<path class="st3" d="M171.9,241.2c-46.1,2.2-91.3-7.4-124-26.3c-25.7-14.9-41.8-34.5-45.3-55.4c-0.1-0.5,0.1-0.9,0.4-1.3
			c-0.7,0.5-1.1,1.1-1,1.8c3.5,20.9,19.6,40.6,45.3,55.4c32.7,18.9,77.9,28.4,124,26.3c1.5-0.1,2.7-0.6,3.3-1.3
			C174,240.9,173.1,241.2,171.9,241.2z"/>
	</g>
	<g>
		<g>
			<path class="st0" d="M85.9,146.4c-0.8,0-1.7-0.2-2.4-0.6l-17.9-10.3c-0.8-0.4-1.2-1.1-1.2-1.7c0-0.6,0.3-1.1,0.9-1.4l86.2-49.8
				c1.1-0.6,3-0.6,4.3,0.2l17.9,10.3c0.8,0.4,1.2,1.1,1.2,1.7c0,0.6-0.3,1.1-0.9,1.4L87.8,146C87.3,146.3,86.6,146.4,85.9,146.4z
				 M153.4,83.2c-0.5,0-1,0.1-1.3,0.3l-86.2,49.8c-0.1,0.1-0.4,0.2-0.4,0.5c0,0.2,0.2,0.5,0.6,0.7l17.9,10.3
				c0.9,0.5,2.4,0.6,3.2,0.2l86.2-49.8c0.1-0.1,0.4-0.2,0.4-0.5c0-0.2-0.2-0.5-0.6-0.7l-17.9-10.3C154.8,83.4,154.1,83.2,153.4,83.2
				z"/>
		</g>
		<defs>
			<filter id="Adobe_OpacityMaskFilter" filterUnits="userSpaceOnUse" x="17.1" y="139.9" width="58.5" height="35.7">
				<feFlood  style="flood-color:white;flood-opacity:1" result="back"/>
				<feBlend  in="SourceGraphic" in2="back" mode="normal"/>
			</filter>
		</defs>
		<mask maskUnits="userSpaceOnUse" x="17.1" y="139.9" width="58.5" height="35.7" id="SVGID_4_">
			<g class="st19">
				<defs>
					<filter id="Adobe_OpacityMaskFilter_1_" filterUnits="userSpaceOnUse" x="17.1" y="139.9" width="58.5" height="35.7">
						<feFlood  style="flood-color:white;flood-opacity:1" result="back"/>
						<feBlend  in="SourceGraphic" in2="back" mode="normal"/>
					</filter>
				</defs>
				<mask maskUnits="userSpaceOnUse" x="17.1" y="139.9" width="58.5" height="35.7" id="SVGID_4_">
					<g class="st20">
					</g>
				</mask>
				<linearGradient id="SVGID_5_" gradientUnits="userSpaceOnUse" x1="17.0679" y1="157.7772" x2="75.5441" y2="157.7772">
					<stop  offset="0" style="stop-color:#000000"/>
					<stop  offset="5.262429e-02" style="stop-color:#171717"/>
					<stop  offset="0.2032" style="stop-color:#545454"/>
					<stop  offset="0.353" style="stop-color:#888888"/>
					<stop  offset="0.4983" style="stop-color:#B3B3B3"/>
					<stop  offset="0.6383" style="stop-color:#D4D4D4"/>
					<stop  offset="0.7715" style="stop-color:#ECECEC"/>
					<stop  offset="0.8952" style="stop-color:#FAFAFA"/>
					<stop  offset="1" style="stop-color:#FFFFFF"/>
				</linearGradient>
				<polygon class="st21" points="17.6,175.6 17.1,174.7 75,139.9 75.5,140.8 				"/>
			</g>
		</mask>
		
			<rect x="12.5" y="157.2" transform="matrix(0.8572 -0.515 0.515 0.8572 -74.6363 46.3732)" class="st0" width="67.6" height="1.1"/>
	</g>
</g>
<g id="Group_1" transform="translate(4087 1441)">
	
		<linearGradient id="Path_1_1_" gradientUnits="userSpaceOnUse" x1="-4132.9453" y1="-888.3468" x2="-4132.105" y2="-889.2313" gradientTransform="matrix(78.6484 -46.969 -39.342 -65.8768 286083.1875 -254003.9688)">
		<stop  offset="0" style="stop-color:#000002"/>
		<stop  offset="1" style="stop-color:#2C0F10"/>
	</linearGradient>
	<path id="Path_1" class="st22" d="M-3945.9-1373.6l0.9,1.5l1.4,2.7l1.1,2.8l0.7,2.9l0.4,3l0.1,3l-0.2,3l-0.5,3l-0.8,3l-1.1,2.9
		l-1.4,2.9l-1.6,2.7l-1.9,2.6l-2.2,2.5l-2.4,2.3l-2.7,2.1l-2.9,1.9l-0.8,0.5l-0.8,0.4l-0.8,0.4l-0.8,0.4l-15.5-2.9l0.3,0l0.3,0
		l0.3,0l0.3,0l0.3,0l0.3,0l0.3,0l0.3,0l0.3,0l0.3-0.1l0.3,0l0.2-0.1l0.3-0.1l0.2-0.1l0.3-0.1l0.3-0.1l0.2-0.1l0.2-0.1l0.3-0.1
		l0.2-0.1l0.3-0.1l0.5-0.3l0.3-0.2l0.3-0.2l0.3-0.2l0.2-0.2l-6.9-1.3l-0.2,0l-0.3-0.1l-0.3,0l-0.3,0l-0.3,0l-0.3-0.1l-0.3-0.1
		l-0.3-0.1l-0.3-0.1l-0.4-0.1l-0.4-0.2l-0.4-0.2l-0.4-0.2l-0.4-0.2l-0.4-0.2l-0.4-0.2l-0.4-0.2l-0.4-0.2l-0.4-0.2l-0.3-0.2l-0.3-0.2
		l-0.1,0l-12.3-2.3l0.1,0l0.2,0l0.2,0l0.2,0l0.2,0l0.1,0l0.2,0l0.2,0l0.2,0l0.2,0l0.2,0l0.2-0.1l0.2-0.1l0.1-0.1l0.2-0.1l0.2-0.1
		l0.1-0.1l0.1-0.1l0.1-0.1l0.1-0.1l0.1-0.1l0.1-0.1l0.1-0.1l0.1-0.1l0.1-0.1l0.1-0.1l0.1-0.1l0.1-0.1l0.1-0.1l0.1-0.1l0.1-0.2l0-0.1
		l0-0.1l0-0.2l0-0.1l0-0.2l0-0.2l0-0.2l0-0.1l0-0.2l0-0.1l0-0.1l0-0.2l-0.1-0.1l-0.1-0.2l-0.1-0.2l-0.1-0.1l-0.1-0.1l-0.1-0.1
		l-0.1-0.1l-0.1-0.1l-0.1-0.1l-0.1-0.1l-0.1-0.1l-0.1-0.1l-0.1-0.1l-0.1-0.1l-0.1-0.1l-0.1-0.1l-0.1-0.1l-0.1,0l-0.1,0l-0.2,0
		l-0.2,0l29.9,5.6l0.1-0.2l0.1-0.3l0.1-0.3l0.1-0.3l0.1-0.3l0.1-0.3l0-0.3l0-0.3l0-0.3l0-0.3l0-0.2l0-0.3l0-0.3l0-0.3l0-0.2l0-0.3
		l0-0.3l-0.1-0.2l0-0.3l-0.1-0.2l-0.1-0.2l-0.1-0.2l-0.1-0.2l-0.1-0.2l-0.1-0.2l-0.1-0.2l-0.5-0.8l-0.2-0.2l-0.2-0.2l-0.1-0.1
		l-0.1-0.1l-0.1-0.1l-0.1-0.1l-0.1-0.1l-0.1-0.1l-0.1-0.1l-0.1-0.1l-0.1-0.1l-0.1-0.1l-0.1-0.1l-0.1-0.1l-0.1-0.1l-0.1-0.1l-0.1-0.1
		l-0.1-0.1l-0.1-0.1l-0.1-0.1l-0.1-0.1l-0.1-0.1l-0.1-0.1l-0.1-0.1l-0.1-0.1l-0.1-0.1l-0.1-0.1l-0.1-0.1l-0.1-0.1l-0.1-0.1l-0.1-0.1
		l-0.1-0.1l-0.2-0.1l-0.1-0.1l-11.3-2.1l0-0.1l0-0.1l0-0.1l0-0.1l0-0.1l0-0.1l0-0.1l0-0.2l0-0.1l0-0.1l0-0.1l0-0.1l0-0.1l0-0.1
		l0-0.1l0-0.1l0-0.1l0-0.1l0-0.1l0-0.1l0-0.1l0-0.1l0-0.1l0-0.1l0.1-0.1l0-0.1l0.1-0.1l0-0.1l0.1-0.1l0.1-0.1l0.1-0.1l0.1-0.1
		l-0.1-0.1l-0.1-0.1l-0.1-0.1l-0.1-0.1l-0.1-0.1l-0.1-0.1l-0.1-0.1l-0.1-0.1l-0.1-0.1l-0.1-0.1l-0.1-0.1l-0.1-0.1l-0.1-0.1l-0.1-0.1
		l-0.1-0.1l-0.1-0.1l-0.1-0.1l-0.1-0.1l-0.1-0.1l-0.1-0.1l-0.1-0.1l-0.1-0.1l-0.1-0.1l-0.1-0.1l-0.1-0.1l-0.1-0.1l-0.1-0.1l-0.1-0.1
		l-0.1-0.1l-0.1-0.1l-0.1-0.1l-0.1-0.1l-0.1-0.1l-0.1-0.1l-0.1-0.1l-0.1-0.1l-0.1-0.1l-0.1-0.1l-0.1-0.1l-0.1-0.1l-0.1-0.1l-0.1-0.1
		l-0.1-0.1l-0.1-0.1l-0.1-0.1l-0.1-0.1l-0.1-0.1l-0.1-0.1l-0.1-0.2l-0.1-0.1l-0.1-0.1l-0.4-0.6l-0.1-0.2l-0.1-0.2l-0.1-0.2l-0.1-0.2
		l-0.1-0.2l-0.1-0.2l-0.1-0.2l-0.1-0.2l0-0.2l-0.1-0.2l-0.1-0.2l0-0.2l-0.1-0.2l0-0.2l0-0.2l0-0.2l0-0.2l0-0.2l0-0.2l0-0.2l0-0.2
		l0-0.2l0-0.2l0-0.2l0-0.2l0-0.2l0-0.2l0-0.2l0-0.2l0-0.2l0-0.2l0-0.2l0-0.2l0.1-0.2l0.1-0.2l0.1-0.2l0-0.2l0.1-0.2l0.1-0.2l0.1-0.2
		l0.1-0.2l0-0.1l0-0.1l0-0.1l0-0.1l0-0.1l0-0.1l0-0.1l0-0.1l0-0.1l0-0.1l0-0.1l0-0.1l0-0.1l0-0.1l0.1-0.1l0-0.1l0-0.1l0-0.1l0.1-0.1
		l0-0.1l0.1-0.1l0.1-0.1l0-0.1l0.1-0.1l0-0.1l0.1-0.1l0.1-0.1l0.1-0.1l0.1-0.1l0.1-0.1l0-0.1l0.1-0.1l5.6,1l0.3-0.2l0.2-0.1l0.2-0.1
		l0.4-0.2l0.2-0.1l0.2-0.1l0.2-0.1l0.2-0.1l0.2-0.1l0.2-0.1l0.2-0.1l0.2-0.1l0.2-0.1l0.2-0.1l0.2-0.1l0.2-0.1l0.2-0.1l0.2-0.1l0.2,0
		l0.3-0.1l0.2,0l0.3-0.1l0.2,0l0.3,0l0.2,0l0.3,0l0.3,0l0.3,0l0.3,0l0.2,0l0.3,0l0.3,0l0.3,0l0.3,0l0.3,0l0.3,0l0.3,0l0.3,0l0.3,0
		l0.3,0l0.3,0l0.3,0.1l0.3,0l9.4,1.7l0.2-3.5l-0.2-0.1l-0.2-0.1l-0.2-0.1l-0.2-0.1l-0.2-0.1l-0.2-0.1l-0.2-0.1l-0.2-0.1l-0.2-0.1
		l-0.2-0.1l-0.2-0.1l-0.2-0.1L-3945.9-1373.6z"/>
	<path id="Path_2" class="st23" d="M-3989.8-1380.5L-3989.8-1380.5c5.1-3.1,10.9-5,16.8-5.3c5.8-0.5,11.5,0.6,16.4,3.1
		c5,2.3,9,6,11.7,10.6l0,0l0,0c2.8,4.5,4.1,9.8,3.8,15.3c-0.2,5.5-1.9,11-5.1,15.9c-3.1,5-7.4,9.2-12.6,12.2
		c-5.1,3.1-10.9,5-16.8,5.3c-5.8,0.5-11.5-0.6-16.4-3.1c-5-2.3-9-6-11.7-10.6c-2.8-4.5-4.1-9.8-3.8-15.3c0.2-5.5,1.9-11,5.1-15.9
		C-3999.4-1373.2-3995-1377.5-3989.8-1380.5z"/>
	<path id="Path_3" class="st3" d="M-3954.6-1369.9L-3954.6-1369.9c0.5-0.3,1.1-0.5,1.7-0.5c1.2-0.1,2.3,0.4,2.8,1.4l0,0l0,0
		c0.6,0.9,0.5,2.1-0.1,3.1c-0.3,0.5-0.7,0.9-1.3,1.2c-0.5,0.3-1.1,0.5-1.7,0.5c-0.6,0-1.2-0.1-1.6-0.3c-1-0.5-1.6-1.5-1.5-2.6
		C-3956.3-1368.2-3955.6-1369.3-3954.6-1369.9L-3954.6-1369.9z"/>
	<path id="Path_4" class="st3" d="M-3997.2-1344.4L-3997.2-1344.4c1.6-1,3.6-0.6,4.5,0.8c0,0,0,0,0,0l0,0l0,0
		c0.6,0.9,0.5,2.1-0.1,3.1c-0.6,1-1.8,1.7-2.9,1.8c-1.8,0.1-3.3-1.2-3.2-2.9C-3999-1342.7-3998.3-1343.8-3997.2-1344.4z"/>
	<path id="Path_5" class="st3" d="M-3975.9-1357.2L-3975.9-1357.2c0.5-0.3,1.1-0.5,1.7-0.5c1.2-0.1,2.3,0.4,2.8,1.4l0,0l0,0
		c0.6,0.9,0.5,2.1-0.1,3.1c-0.3,0.5-0.7,0.9-1.3,1.2c-0.5,0.3-1.1,0.5-1.7,0.5c-1.8,0.1-3.3-1.2-3.2-2.9
		C-3977.7-1355.5-3977-1356.5-3975.9-1357.2z"/>
	<path id="Path_6" class="st3" d="M-3987.4-1338.9c0,0,5.5,4.8,8.9,5.3c3.3,0.6,3.9,0.3,6.1-1.1c2.1-1.3,3.1-2.5,3.8-4.8
		c0.7-2.1,0.3-4.3-1-5.8c-1.1-1.2-2.5-2.2-3.9-3.1c0.8-0.1,1.6-0.4,2.3-0.8c0.6-0.3,1.2-0.8,1.7-1.3c1.4,1,2.6,2.1,3.6,3.3
		c1.7,2.2,2.1,5.1,1.2,7.9c-0.9,3-3.1,5.8-5.9,7.6c-3.1,2.1-4.7,2.2-9.4,1.4c-2.6-0.5-5.2-1.3-7.6-2.4L-3987.4-1338.9z
		 M-3980.9-1352.5c-1.8-1-3.5-2.1-5.2-3.3c-1.6-1.2-2.8-2.9-3.4-4.7c-0.7-1.9-0.7-4-0.1-6c0.8-2.5,2.4-4.8,4.5-6.5
		c-0.6,0.9-1.1,1.9-1.5,3c-0.7,2.3-1,4.6-0.4,6.6c0.6,1.8,1.8,3.5,3.3,4.7c1,0.8,2.1,1.6,3.2,2.2
		C-3981-1355.3-3981.2-1353.9-3980.9-1352.5L-3980.9-1352.5z M-3959.5-1369.9l0.3-5.9c-2.1-0.7-4.2-1.3-6.5-1.7
		c-5.2-0.9-9.5-0.7-12.9,0.8c-3.3,1.3-5.8,4.1-6.7,7.3c-0.9,2.9-0.4,5.6,1,7.3c0.9,1.1,2.4,2.1,5,3.7c0.4-0.4,0.8-0.7,1.2-1
		c0.8-0.6,1.7-1,2.6-1.2c-1.8-1.1-3.5-2.4-5-3.8c-1.2-1.3-1.6-3.1-1.1-4.9c0.5-1.8,2-3.1,4.4-4.1c2.4-0.9,5.1-1.1,8.2-0.6
		C-3964.8-1373.3-3959.6-1369.7-3959.5-1369.9L-3959.5-1369.9z M-3967.8-1356.2c0.2,1.3,0,2.8-0.7,4c0.8,0.6,1.5,1.2,2.2,1.8
		c1.5,1.4,2.5,3.2,3.1,5.2c0.6,2.1,0.5,4.4-0.2,6.6c-0.8,2.5-1.9,4.4-3.4,5.6c3.5-1.6,5.8-4.3,6.9-8c0.7-2.3,0.8-4.8,0.1-7
		c-0.6-2.1-1.8-3.9-3.5-5.3C-3964.8-1354.3-3966.3-1355.3-3967.8-1356.2L-3967.8-1356.2z"/>
	<path id="Path_7" class="st3" d="M-3954.6-1369.9L-3954.6-1369.9c0.5-0.3,1.1-0.5,1.7-0.5c1.2-0.1,2.3,0.4,2.8,1.4l0,0l0,0
		c0.6,0.9,0.5,2.1-0.1,3.1c-0.3,0.5-0.7,0.9-1.3,1.2c-0.5,0.3-1.1,0.5-1.7,0.5c-0.6,0-1.2-0.1-1.6-0.3c-1-0.5-1.6-1.5-1.5-2.6
		C-3956.3-1368.2-3955.6-1369.3-3954.6-1369.9L-3954.6-1369.9z"/>
	<path id="Path_8" class="st3" d="M-3997.2-1344.4L-3997.2-1344.4c1.6-1,3.6-0.6,4.5,0.8c0,0,0,0,0,0l0,0l0,0
		c0.6,0.9,0.5,2.1-0.1,3.1c-0.6,1-1.8,1.7-2.9,1.8c-1.8,0.1-3.3-1.2-3.2-2.9C-3999-1342.7-3998.3-1343.8-3997.2-1344.4z"/>
	<path id="Path_9" class="st3" d="M-3975.9-1357.2L-3975.9-1357.2c0.5-0.3,1.1-0.5,1.7-0.5c1.2-0.1,2.3,0.4,2.8,1.4l0,0l0,0
		c0.6,0.9,0.5,2.1-0.1,3.1c-0.3,0.5-0.7,0.9-1.3,1.2c-0.5,0.3-1.1,0.5-1.7,0.5c-1.8,0.1-3.3-1.2-3.2-2.9
		C-3977.7-1355.5-3977-1356.5-3975.9-1357.2z"/>
	<path id="Path_10" class="st3" d="M-3987.4-1338.9c0,0,5.5,4.8,8.9,5.3c3.3,0.6,3.9,0.3,6.1-1.1c2.1-1.3,3.1-2.5,3.8-4.8
		c0.7-2.1,0.3-4.3-1-5.8c-1.1-1.2-2.5-2.2-3.9-3.1c0.8-0.1,1.6-0.4,2.3-0.8c0.6-0.3,1.2-0.8,1.7-1.3c1.4,1,2.6,2.1,3.6,3.3
		c1.7,2.2,2.1,5.1,1.2,7.9c-0.9,3-3.1,5.8-5.9,7.6c-3.1,2.1-4.7,2.2-9.4,1.4c-2.6-0.5-5.2-1.3-7.6-2.4L-3987.4-1338.9z
		 M-3980.9-1352.5c-1.8-1-3.5-2.1-5.2-3.3c-1.6-1.2-2.8-2.9-3.4-4.7c-0.7-1.9-0.7-4-0.1-6c0.8-2.5,2.4-4.8,4.5-6.5
		c-0.6,0.9-1.1,1.9-1.5,3c-0.7,2.3-1,4.6-0.4,6.6c0.6,1.8,1.8,3.5,3.3,4.7c1,0.8,2.1,1.6,3.2,2.2
		C-3981-1355.3-3981.2-1353.9-3980.9-1352.5L-3980.9-1352.5z M-3959.5-1369.9l0.3-5.9c-2.1-0.7-4.2-1.3-6.5-1.7
		c-5.2-0.9-9.5-0.7-12.9,0.8c-3.3,1.3-5.8,4.1-6.7,7.3c-0.9,2.9-0.4,5.6,1,7.3c0.9,1.1,2.4,2.1,5,3.7c0.4-0.4,0.8-0.7,1.2-1
		c0.8-0.6,1.7-1,2.6-1.2c-1.8-1.1-3.5-2.4-5-3.8c-1.2-1.3-1.6-3.1-1.1-4.9c0.5-1.8,2-3.1,4.4-4.1c2.4-0.9,5.1-1.1,8.2-0.6
		C-3964.8-1373.3-3959.6-1369.7-3959.5-1369.9L-3959.5-1369.9z M-3967.8-1356.2c0.2,1.3,0,2.8-0.7,4c0.8,0.6,1.5,1.2,2.2,1.8
		c1.5,1.4,2.5,3.2,3.1,5.2c0.6,2.1,0.5,4.4-0.2,6.6c-0.8,2.5-1.9,4.4-3.4,5.6c3.5-1.6,5.8-4.3,6.9-8c0.7-2.3,0.8-4.8,0.1-7
		c-0.6-2.1-1.8-3.9-3.5-5.3C-3964.8-1354.3-3966.3-1355.3-3967.8-1356.2L-3967.8-1356.2z"/>
</g>
</svg>
