<svg xmlns="http://www.w3.org/2000/svg" xmlns:xlink="http://www.w3.org/1999/xlink" viewBox="0 0 565.141 492.676">
  <defs>
    <style>
      .cls-1 {
        opacity: 0.388;
      }

      .cls-2 {
        fill: none;
        stroke: #ff644d;
        stroke-width: 0.686px;
      }

      .cls-10, .cls-11, .cls-2, .cls-3, .cls-5, .cls-6, .cls-7, .cls-8 {
        fill-rule: evenodd;
      }

      .cls-3, .cls-4 {
        fill: #2c3e50;
      }

      .cls-5 {
        fill: #1892ff;
      }

      .cls-6 {
        fill: #c5c5c5;
      }

      .cls-7 {
        fill: #fff;
      }

      .cls-8 {
        fill: #bababa;
      }

      .cls-9 {
        fill: #a1a7b1;
      }

      .cls-10 {
        fill: url(#linear-gradient);
      }

      .cls-11 {
        fill: #f26450;
      }
    </style>
    <linearGradient id="linear-gradient" x1="-0.093" y1="-0.138" x2="1.159" y2="1.18" gradientUnits="objectBoundingBox">
      <stop offset="0" stop-color="#000002"/>
      <stop offset="1" stop-color="#2c0f10"/>
    </linearGradient>
  </defs>
  <g id="Group_2" data-name="Group 2" transform="translate(-3860.699 -1213.211)">
    <g id="Group-6" class="cls-1" transform="matrix(-0.956, 0.292, -0.292, -0.956, 4429.857, 1564.412)">
      <g id="Group" transform="translate(0)">
        <path id="Path-69" class="cls-2" d="M36.655,137.474,0,89.006,47.684,4.181,231.938,1.85,445.708,0l36.856,152.522L397.7,351.562" transform="translate(0 15.426)"/>
        <path id="Path-71" class="cls-2" d="M0,0,21.871,63.142" transform="translate(375.83 303.847)"/>
        <path id="Path-67" class="cls-2" d="M65.552,317.464,46.267,254.1,0,152.851,27.212,130.5,11.231,19.59,206.028,0,303.12,16.392l55.031,88.523,87.836,63.409L431.411,273.2,361.7,366.946l-197.944-76.2Z" transform="translate(36.398 0)"/>
        <path id="Path-70" class="cls-2" d="M0,13.065,117.49,49.709,292.474,62.318,352.068,0l33.075,32.156" transform="translate(82.665 241.04)"/>
        <path id="Path-5" class="cls-2" d="M82,149.5,8.954,82.234,0,0,62.946,25.9,199.492,186.141" transform="translate(0.664 104.607)"/>
        <path id="Path-2" class="cls-2" d="M46.878,0,0,73.745" transform="translate(434.74 167.575)"/>
        <path id="Path-3" class="cls-2" d="M0,88.819,46.18,0" transform="translate(395.189 14.913)"/>
      </g>
    </g>
    <path id="Oval-12" class="cls-3" d="M3.532,0A3.493,3.493,0,0,1,7.065,3.452,3.493,3.493,0,0,1,3.532,6.9,3.493,3.493,0,0,1,0,3.452,3.493,3.493,0,0,1,3.532,0Z" transform="matrix(-0.956, 0.292, -0.292, -0.956, 4244.312, 1293.201)"/>
    <ellipse id="Oval-12-Copy-11" class="cls-4" cx="5.047" cy="4.931" rx="5.047" ry="4.931" transform="matrix(-0.956, 0.292, -0.292, -0.956, 4403.986, 1467.481)"/>
    <path id="Oval-12-Copy-6" class="cls-3" d="M3.533,0A3.493,3.493,0,0,1,7.065,3.452,3.493,3.493,0,0,1,3.533,6.9,3.493,3.493,0,0,1,0,3.452,3.493,3.493,0,0,1,3.533,0Z" transform="matrix(-0.956, 0.292, -0.292, -0.956, 3907.274, 1442.242)"/>
    <path id="Oval-12-Copy-9" class="cls-3" d="M3.532,0A3.494,3.494,0,0,1,7.066,3.452,3.494,3.494,0,0,1,3.532,6.9,3.493,3.493,0,0,1,0,3.452,3.493,3.493,0,0,1,3.532,0Z" transform="matrix(-0.956, 0.292, -0.292, -0.956, 4157.708, 1346.054)"/>
    <path id="Oval-12-Copy-7" class="cls-3" d="M5.847,0a5.781,5.781,0,0,1,5.848,5.712,5.781,5.781,0,0,1-5.848,5.712A5.781,5.781,0,0,1,0,5.712,5.781,5.781,0,0,1,5.847,0Z" transform="matrix(-0.956, 0.292, -0.292, -0.956, 4009.545, 1682.312)"/>
    <path id="Oval-12-Copy-5" class="cls-3" d="M2.756,0A2.73,2.73,0,0,1,5.513,2.7a2.73,2.73,0,0,1-2.757,2.7A2.729,2.729,0,0,1,0,2.7,2.729,2.729,0,0,1,2.756,0Z" transform="matrix(-0.956, 0.292, -0.292, -0.956, 3923.883, 1545.976)"/>
    <path id="Oval-12-Copy-8" class="cls-5" d="M392.256-262.295a1.524,1.524,0,0,1,1.541,1.506,1.524,1.524,0,0,1-1.541,1.506,1.524,1.524,0,0,1-1.541-1.506A1.524,1.524,0,0,1,392.256-262.295Z" transform="matrix(-0.956, 0.292, -0.292, -0.956, 4325.3, 1207.833)"/>
    <path id="Oval-12-Copy-10" class="cls-3" d="M3.258,0A3.226,3.226,0,0,1,6.516,3.193,3.227,3.227,0,0,1,3.258,6.388,3.227,3.227,0,0,1,0,3.193,3.226,3.226,0,0,1,3.258,0Z" transform="matrix(-0.956, 0.292, -0.292, -0.956, 4202.075, 1637.392)"/>
    <path id="Oval-12-Copy-12" class="cls-3" d="M1.727,0A1.708,1.708,0,0,1,3.454,1.688,1.707,1.707,0,0,1,1.727,3.375,1.707,1.707,0,0,1,0,1.688,1.708,1.708,0,0,1,1.727,0Z" transform="matrix(-0.956, 0.292, -0.292, -0.956, 4352.563, 1429.718)"/>
    <path id="Oval-12-Copy-5-2" data-name="Oval-12-Copy-5" class="cls-3" d="M2.757,0A2.731,2.731,0,0,1,5.513,2.7a2.73,2.73,0,0,1-2.756,2.7A2.73,2.73,0,0,1,0,2.7,2.731,2.731,0,0,1,2.757,0Z" transform="matrix(-0.956, 0.292, -0.292, -0.956, 3947.074, 1462.787)"/>
    <path id="Oval-12-Copy-5-3" data-name="Oval-12-Copy-5" class="cls-3" d="M2.757,0A2.73,2.73,0,0,1,5.513,2.7a2.73,2.73,0,0,1-2.756,2.7A2.73,2.73,0,0,1,0,2.7,2.73,2.73,0,0,1,2.757,0Z" transform="matrix(-0.956, 0.292, -0.292, -0.956, 3944.923, 1331.878)"/>
    <path id="Rectangle-12" class="cls-6" d="M46.454,0H360.89a8.238,8.238,0,0,1,8.238,8.238V225.263H38.216V8.238h0A8.238,8.238,0,0,1,46.454,0Z" transform="translate(3939.232 1385.311)"/>
    <path id="Rectangle-12-Copy" class="cls-7" d="M47.042,12.176H360.3a2.747,2.747,0,0,1,2.747,2.746V212.217H44.3V14.922h0A2.746,2.746,0,0,1,47.042,12.176Z" transform="translate(3939.705 1384.824)"/>
    <path id="Combined-Shape" class="cls-8" d="M90.659,230.481H.869c6.84,5.995,31.683,5.713,61.281,5.713,3.815,0,7.551.005,11.179,0H334.883c3.629.005,7.365,0,11.18,0,29.6,0,54.441.282,61.281-5.713H90.659Z" transform="translate(3939.232 1385.311)"/>
    <rect id="Rectangle-13" class="cls-9" width="407.344" height="7.828" transform="translate(3939.232 1608.121)"/>
    <path id="Rectangle-13-Copy-2" class="cls-3" d="M165.139,222.81h77.2a3.891,3.891,0,0,1-3.891,3.891H169.031a3.892,3.892,0,0,1-3.892-3.891Z" transform="translate(3939.232 1385.311)"/>
    <g id="Group_1" data-name="Group 1" transform="translate(4087 1441)">
      <path id="Path_1" data-name="Path 1" class="cls-10" d="M143.886,98.819l.053,3.189-.29,5.718-.817,5.587-1.4,5.349-1.9,5.165-2.345,4.9L134.4,133.34l-3.241,4.3-3.61,3.979-3.953,3.61-4.348,3.241-4.612,2.82-4.9,2.345-5.165,1.871-5.376,1.4-5.56.843-5.718.29-1.476-.026-1.449-.053-1.449-.079-1.423-.132L62.774,138.426l.474.343.4.343.422.316.4.264.422.264.4.264.4.237.369.211.4.184.4.158.4.184.4.132.422.132.4.079.422.132.448.079.4.053.448.053.474.053H71.1l.474.026H72.6l.527-.026.58-.026.553-.026.474-.053-8.643-8.617-.316-.264-.343-.343-.343-.29-.369-.343-.4-.369-.4-.422-.4-.448-.369-.5-.369-.527-.4-.58-.369-.606-.369-.659-.343-.632-.343-.685-.343-.685-.343-.685-.316-.738-.316-.712-.316-.712-.29-.711-.264-.712-.079-.158L43.3,105.96l.184.184.211.184.211.158.211.158.237.158.211.132.264.132.237.105.264.105.264.079.264.079.264.053.29.053h.264l.29.053.29.026.29-.026.29-.053H48.1l.29-.053.264-.053.264-.079.264-.079.264-.105.237-.105.237-.132.237-.132.237-.158.211-.158.211-.158.211-.184.184-.184.184-.184.184-.211.158-.211.184-.211.132-.237.132-.264.132-.211.132-.237.079-.264.079-.264.105-.264.026-.264.053-.29.026-.316.026-.264.026-.264-.026-.29-.026-.29-.026-.29-.053-.264-.026-.264-.105-.264-.079-.264-.079-.264-.132-.237-.132-.264-.132-.211-.132-.264-.184-.184-.158-.211-.184-.211-.184-.211,37.341,37.341.264-.237.316-.369.343-.4.29-.369.316-.4.316-.4.264-.4.264-.4.264-.4.264-.422.184-.4.211-.422.211-.422.184-.422.184-.4.158-.448.184-.422.105-.422.158-.448.079-.422.079-.448.105-.448.053-.448.079-.448.026-.448.053-.474V122.8l-.053-.448-.026-.5-.053-.237-.026-.237-.026-.237-.026-.264-.053-.237-.026-.264-.053-.237-.053-.264-.053-.264-.026-.264-.079-.264-.053-.264-.079-.264-.053-.264-.079-.29-.079-.264-.053-.29-.053-.264-.105-.29-.079-.264-.079-.29-.105-.29-.079-.29-.079-.316-.105-.264-.105-.29-.105-.316-.105-.29-.105-.29-.105-.316-.132-.343-.079-.184-14.072-14.1.053-.237.105-.237.053-.211.079-.211.079-.237.105-.211.079-.211.132-.237.079-.184.105-.211.105-.211.132-.211.105-.237.132-.158.132-.211.132-.184.132-.184.132-.184.158-.211.132-.184.158-.158.158-.184.158-.184.158-.158.184-.158.158-.158.184-.158.158-.158.184-.158.184-.132.184-.158.184-.132-.105-.264-.105-.237-.105-.237-.105-.264-.105-.211-.105-.237-.105-.211L80.43,91.1l-.053-.211-.132-.237-.079-.237-.105-.211-.079-.211L79.9,89.78l-.053-.211-.132-.211-.079-.184-.053-.211-.079-.211-.079-.184-.079-.184-.079-.211-.053-.184-.079-.211-.053-.158-.026-.184-.105-.184-.053-.158-.053-.184-.053-.184-.053-.158-.053-.158-.079-.316-.079-.316-.105-.316-.079-.316-.079-.316-.079-.316-.053-.316-.079-.316-.053-.316-.079-.316-.053-.316-.053-.343-.053-.343-.026-.29-.053-.343-.026-.316-.026-.369-.026-.316-.026-.316v-1.37l.026-.316.026-.343.026-.369.026-.343.053-.343.026-.343.053-.369.079-.343.105-.343.053-.343.079-.343.132-.343.079-.343.105-.369.132-.316.132-.343.132-.316.132-.343.158-.316.184-.316.158-.343.158-.343.211-.29.158-.343.184-.29L80.4,70.2l.237-.343.184-.29.211-.316.237-.316.211-.29.237-.316.237-.316.264-.264.264-.316.264-.29.211-.29.264-.29.264-.29.264-.29.316-.29.079-.105.105-.105.105-.105.105-.105.132-.105.105-.105.105-.105.132-.105.132-.105.105-.105.132-.105.132-.105.132-.105.132-.105.158-.079.132-.105.132-.105.158-.132.158-.079.132-.105.158-.105.158-.105.158-.132.184-.079.132-.079.158-.105L87.7,62.9l.158-.105.184-.105.184-.079.158-.132.184-.079,6.983,6.931h.553l.343-.026.316-.026h.738l.316.026.369.026h.369l.369.079.369.053.4.053.4.079.369.079.4.079.4.105.369.105.4.105.369.132.4.105.369.158.422.158.343.132.4.158.369.184.4.184.369.158.4.237.369.211.369.211.422.237.343.237.369.237.4.264.369.264.369.264.369.29.369.29.369.29.369.316.369.316.4.29.4.369.343.343.369.343,11.7,11.7,3.189-5.376-.237-.29-.237-.316-.237-.316-.264-.316-.237-.343-.237-.29-.264-.29-.237-.316-.211-.29-.264-.29-.237-.316-.237-.316Z" transform="translate(-31.89 -45.956)"/>
      <path id="Path_2" data-name="Path 2" class="cls-11" d="M56.051,0h0A53.468,53.468,0,0,1,84.063,7.51a53.581,53.581,0,0,1,20.5,20.5,53.468,53.468,0,0,1,7.51,28.012v.026h0a53.468,53.468,0,0,1-7.51,28.012,53.581,53.581,0,0,1-20.5,20.5,53.468,53.468,0,0,1-28.012,7.51,53.5,53.5,0,0,1-28.039-7.51,53.581,53.581,0,0,1-20.5-20.5A53.468,53.468,0,0,1,0,56.051,53.5,53.5,0,0,1,7.51,28.012a53.581,53.581,0,0,1,20.5-20.5A53.5,53.5,0,0,1,56.051,0Z" transform="translate(0 0)"/>
      <path id="Path_3" data-name="Path 3" class="cls-7" d="M351.287,191.4h0a5.566,5.566,0,0,1,2.82.738,5.562,5.562,0,0,1,2.793,4.849v.026h0a5.562,5.562,0,0,1-2.793,4.849,5.314,5.314,0,0,1-2.82.738,5.224,5.224,0,0,1-2.793-.738,5.5,5.5,0,0,1-2.055-2.055,5.706,5.706,0,0,1,0-5.613,5.562,5.562,0,0,1,4.849-2.793Z" transform="translate(-254.601 -140.962)"/>
      <path id="Path_4" data-name="Path 4" class="cls-7" d="M42.687,191.4h0a5.562,5.562,0,0,1,5.613,5.587v.026h0a5.562,5.562,0,0,1-2.793,4.849,5.706,5.706,0,0,1-5.613,0A5.6,5.6,0,0,1,42.687,191.4Z" transform="translate(-27.323 -140.962)"/>
      <path id="Path_5" data-name="Path 5" class="cls-7" d="M196.987,191.4h0a5.566,5.566,0,0,1,2.82.738,5.562,5.562,0,0,1,2.793,4.849v.026h0a5.562,5.562,0,0,1-2.793,4.849,5.314,5.314,0,0,1-2.82.738,5.224,5.224,0,0,1-2.793-.738,5.6,5.6,0,0,1,2.793-10.462Z" transform="translate(-140.962 -140.962)"/>
      <path id="Path_6" data-name="Path 6" class="cls-7" d="M76.871,114.6s3.742,12.886,7.958,16.944c4.19,4.058,5.218,4.19,9.487,3.979,4.005-.158,6.43-1.054,9.3-4.006a11.812,11.812,0,0,0,3.5-10.277,38.243,38.243,0,0,0-2.872-8.643,11.352,11.352,0,0,0,3.926.9,10.9,10.9,0,0,0,3.426-.448,37.25,37.25,0,0,1,2.293,8.8,16.322,16.322,0,0,1-4.981,13.65,21.194,21.194,0,0,1-14.7,6.377c-6.14.343-8.459-.87-14.388-6.614A73.065,73.065,0,0,1,71.1,124.248Zm0,0Zm20.66-15.548a81.669,81.669,0,0,1-4.48-10.146,20.862,20.862,0,0,1-.791-10.8,18.243,18.243,0,0,1,4.981-9.645A21.691,21.691,0,0,1,109.073,62.4a18.187,18.187,0,0,0-4.559,3.294c-2.925,3-5.27,6.4-6.061,10.093a21.079,21.079,0,0,0,.738,10.62,49.152,49.152,0,0,0,2.582,6.588A11.2,11.2,0,0,0,97.531,99.056Zm0,0Zm44.64-7.22,5.4-9.039a79.539,79.539,0,0,0-7.668-8.828C133.344,67.644,127.1,63.876,121.143,62.9A16.73,16.73,0,0,0,105.7,68.145c-3.716,3.847-5.27,8.564-4.691,12.623.369,2.583,1.634,5.666,3.926,10.62a11.08,11.08,0,0,1,2.5-.474,10.949,10.949,0,0,1,4.638.606,49.26,49.26,0,0,1-3.821-10.857,9.592,9.592,0,0,1,2.635-8.828c2.266-2.319,5.481-3.057,9.671-2.266,4.137.791,8.169,3.057,12.1,6.878C137.613,81.215,141.829,91.835,142.171,91.835Zm0,0Zm-23.216,13.808a11.371,11.371,0,0,1-4.4,5.745,38.811,38.811,0,0,1,1.581,4.981,24.961,24.961,0,0,1-.026,11.252,21.8,21.8,0,0,1-5.824,10.356c-3.215,3.294-6.351,5.244-9.434,5.771,6.272.738,11.727-1.344,16.417-6.193a21.824,21.824,0,0,0,5.929-11.068,23.361,23.361,0,0,0-.5-11.779A75.771,75.771,0,0,0,118.955,105.644Z" transform="translate(-52.364 -45.956)"/>
      <path id="Path_7" data-name="Path 7" class="cls-7" d="M351.287,191.4h0a5.566,5.566,0,0,1,2.82.738,5.562,5.562,0,0,1,2.793,4.849v.026h0a5.562,5.562,0,0,1-2.793,4.849,5.314,5.314,0,0,1-2.82.738,5.224,5.224,0,0,1-2.793-.738,5.5,5.5,0,0,1-2.055-2.055,5.706,5.706,0,0,1,0-5.613,5.562,5.562,0,0,1,4.849-2.793Z" transform="translate(-254.601 -140.962)"/>
      <path id="Path_8" data-name="Path 8" class="cls-7" d="M42.687,191.4h0a5.562,5.562,0,0,1,5.613,5.587v.026h0a5.562,5.562,0,0,1-2.793,4.849,5.706,5.706,0,0,1-5.613,0A5.6,5.6,0,0,1,42.687,191.4Z" transform="translate(-27.323 -140.962)"/>
      <path id="Path_9" data-name="Path 9" class="cls-7" d="M196.987,191.4h0a5.566,5.566,0,0,1,2.82.738,5.562,5.562,0,0,1,2.793,4.849v.026h0a5.562,5.562,0,0,1-2.793,4.849,5.314,5.314,0,0,1-2.82.738,5.224,5.224,0,0,1-2.793-.738,5.6,5.6,0,0,1,2.793-10.462Z" transform="translate(-140.962 -140.962)"/>
      <path id="Path_10" data-name="Path 10" class="cls-7" d="M76.871,114.6s3.742,12.886,7.958,16.944c4.19,4.058,5.218,4.19,9.487,3.979,4.005-.158,6.43-1.054,9.3-4.006a11.812,11.812,0,0,0,3.5-10.277,38.243,38.243,0,0,0-2.872-8.643,11.352,11.352,0,0,0,3.926.9,10.9,10.9,0,0,0,3.426-.448,37.25,37.25,0,0,1,2.293,8.8,16.322,16.322,0,0,1-4.981,13.65,21.194,21.194,0,0,1-14.7,6.377c-6.14.343-8.459-.87-14.388-6.614A73.065,73.065,0,0,1,71.1,124.248Zm0,0Zm20.66-15.548a81.669,81.669,0,0,1-4.48-10.146,20.862,20.862,0,0,1-.791-10.8,18.243,18.243,0,0,1,4.981-9.645A21.691,21.691,0,0,1,109.073,62.4a18.187,18.187,0,0,0-4.559,3.294c-2.925,3-5.27,6.4-6.061,10.093a21.079,21.079,0,0,0,.738,10.62,49.152,49.152,0,0,0,2.582,6.588A11.2,11.2,0,0,0,97.531,99.056Zm0,0Zm44.64-7.22,5.4-9.039a79.539,79.539,0,0,0-7.668-8.828C133.344,67.644,127.1,63.876,121.143,62.9A16.73,16.73,0,0,0,105.7,68.145c-3.716,3.847-5.27,8.564-4.691,12.623.369,2.583,1.634,5.666,3.926,10.62a11.08,11.08,0,0,1,2.5-.474,10.949,10.949,0,0,1,4.638.606,49.26,49.26,0,0,1-3.821-10.857,9.592,9.592,0,0,1,2.635-8.828c2.266-2.319,5.481-3.057,9.671-2.266,4.137.791,8.169,3.057,12.1,6.878C137.613,81.215,141.829,91.835,142.171,91.835Zm0,0Zm-23.216,13.808a11.371,11.371,0,0,1-4.4,5.745,38.811,38.811,0,0,1,1.581,4.981,24.961,24.961,0,0,1-.026,11.252,21.8,21.8,0,0,1-5.824,10.356c-3.215,3.294-6.351,5.244-9.434,5.771,6.272.738,11.727-1.344,16.417-6.193a21.824,21.824,0,0,0,5.929-11.068,23.361,23.361,0,0,0-.5-11.779A75.771,75.771,0,0,0,118.955,105.644Z" transform="translate(-52.364 -45.956)"/>
    </g>
  </g>
</svg>
