<svg xmlns="http://www.w3.org/2000/svg" viewBox="0 0 233.431 195.876">
  <defs>
    <style>
      .cls-1, .cls-5 {
        fill: #c5c5c5;
      }

      .cls-1, .cls-11, .cls-12, .cls-2, .cls-3, .cls-6, .cls-7, .cls-9 {
        fill-rule: evenodd;
      }

      .cls-2, .cls-4 {
        fill: #a1a7b1;
      }

      .cls-3 {
        fill: #b6b9be;
      }

      .cls-6 {
        fill: #f8fcff;
      }

      .cls-7 {
        fill: #2c3e50;
      }

      .cls-8 {
        fill: #fff;
      }

      .cls-9 {
        fill: #ff644d;
      }

      .cls-10, .cls-12 {
        fill: none;
        stroke: #e6e6e6;
      }

      .cls-10 {
        stroke-width: 1.5px;
      }

      .cls-11 {
        fill: #e6e6e6;
      }
    </style>
  </defs>
  <g id="Group_8" data-name="Group 8" transform="translate(-4002.511 -206.166)">
    <path id="Rectangle-Copy-6" class="cls-1" d="M31.165,0H99.987l25.97,50.876H57.135Z" transform="translate(4054.511 351.166)"/>
    <path id="Combined-Shape" class="cls-2" d="M108.427,39.429,88.3,0H25.971L46.1,39.429Z" transform="translate(4054.511 351.166)"/>
    <path id="Rectangle-Copy-3" class="cls-3" d="M3,39.429H78.807a3,3,0,0,1,3,3v5.447h0a3,3,0,0,1-3,3H3a3,3,0,0,1-3-3V42.429H0A3,3,0,0,1,3,39.429Z" transform="translate(4054.511 351.166)"/>
    <rect id="Rectangle" class="cls-4" width="224.353" height="156.344" rx="3" transform="translate(4011.589 206.166)"/>
    <rect id="Rectangle-Copy" class="cls-5" width="224.353" height="156.344" rx="3" transform="translate(4002.511 206.166)"/>
    <path id="Mask" class="cls-6" d="M7,5.084H217a2,2,0,0,1,2,2v124h0a2,2,0,0,1-2,2H7a2,2,0,0,1-2-2v-124H5A2,2,0,0,1,7,5.084Z" transform="translate(4002.511 206.166)"/>
    <path id="Mask-2" data-name="Mask" class="cls-7" d="M7,5.084H45v128H7a2,2,0,0,1-2-2v-124H5A2,2,0,0,1,7,5.084Z" transform="translate(4002.511 206.166)"/>
    <g id="Group-2" transform="translate(4012.511 241.166)">
      <rect id="Rectangle-2" class="cls-8" width="30" height="4" rx="2"/>
      <rect id="Rectangle-2-Copy" class="cls-8" width="30" height="4" rx="2" transform="translate(0 10)"/>
      <rect id="Rectangle-2-Copy-2" class="cls-8" width="20" height="4" rx="2" transform="translate(0 20)"/>
      <rect id="Rectangle-2-Copy-3" class="cls-8" width="30" height="4" rx="2" transform="translate(0 30)"/>
      <rect id="Rectangle-2-Copy-4" class="cls-8" width="20" height="4" rx="2" transform="translate(0 40)"/>
      <rect id="Rectangle-2-Copy-5" class="cls-8" width="10" height="4" rx="2" transform="translate(0 50)"/>
    </g>
    <path id="Mask-3" data-name="Mask" class="cls-9" d="M7,5H217a2,2,0,0,1,2,2V29H5V7H5A2,2,0,0,1,7,5Z" transform="translate(4002.511 206.166)"/>
    <g id="Rectangle-3" transform="translate(4056.511 254.166)">
      <rect id="Rectangle_1" data-name="Rectangle 1" class="cls-8" width="40" height="16" rx="8" transform="translate(0 18)"/>
      <rect id="Rectangle_2" data-name="Rectangle 2" class="cls-10" width="38.5" height="14.5" rx="7.25" transform="translate(0.75 18.75)"/>
    </g>
    <g id="Rectangle-3-Copy" transform="translate(4056.511 254.166)">
      <rect id="Rectangle_3" data-name="Rectangle 3" class="cls-8" width="40" height="16" rx="8" transform="translate(54)"/>
      <rect id="Rectangle_4" data-name="Rectangle 4" class="cls-10" width="38.5" height="14.5" rx="7.25" transform="translate(54.75 0.75)"/>
    </g>
    <g id="Rectangle-3-Copy-2" transform="translate(4056.511 254.166)">
      <rect id="Rectangle_5" data-name="Rectangle 5" class="cls-8" width="40" height="16" rx="8" transform="translate(61 37)"/>
      <rect id="Rectangle_6" data-name="Rectangle 6" class="cls-10" width="38.5" height="14.5" rx="7.25" transform="translate(61.75 37.75)"/>
    </g>
    <g id="Rectangle-3-Copy-3" transform="translate(4056.511 254.166)">
      <rect id="Rectangle_7" data-name="Rectangle 7" class="cls-8" width="40" height="16" rx="8" transform="translate(101 16)"/>
      <rect id="Rectangle_8" data-name="Rectangle 8" class="cls-10" width="38.5" height="14.5" rx="7.25" transform="translate(101.75 16.75)"/>
    </g>
    <path id="Fill-1" class="cls-11" d="M157,23.817a.58.58,0,1,0-1.16,0,6.726,6.726,0,0,1-.048.839,5.825,5.825,0,0,1-1.162,2.785,6.61,6.61,0,0,1-1.063,1.064,5.838,5.838,0,0,1-7.139,0,6.6,6.6,0,0,1-1.062-1.061,5.822,5.822,0,0,1-1.163-2.788,5.862,5.862,0,0,1,.408-3.059,6.516,6.516,0,0,1,.755-1.292,6.629,6.629,0,0,1,1.062-1.062,5.813,5.813,0,0,1,6.844-.209l-1.3.3-.337.079a.58.58,0,1,0,.308,1.119l2.416-.562.338-.078a.586.586,0,0,0,.4-.714q-.28-1.208-.562-2.416l-.078-.338a.58.58,0,0,0-1.119.308l.264,1.139a6.488,6.488,0,0,0-.7-.368,7.238,7.238,0,0,0-2.463-.618,6.948,6.948,0,0,0-4.583,1.343,7.233,7.233,0,0,0-1.8,1.935,6.869,6.869,0,0,0-.909,2.253,7,7,0,0,0,4.532,8.065,7,7,0,0,0,8.643-3.606A7.1,7.1,0,0,0,157,23.817" transform="translate(4056.511 254.166)"/>
    <path id="Path-2" class="cls-12" d="M39,26h8V8h8.062" transform="translate(4056.511 254.166)"/>
    <path id="Path-3" class="cls-12" d="M39,26H52V45H62" transform="translate(4056.511 254.166)"/>
    <path id="Path-4" class="cls-12" d="M94,8h5V24h3" transform="translate(4056.511 254.166)"/>
  </g>
</svg>
