<?xml version="1.0" encoding="utf-8"?>
<!-- Generator: Adobe Illustrator 21.1.0, SVG Export Plug-In . SVG Version: 6.00 Build 0)  -->
<svg version="1.1" id="Layer_1" xmlns="http://www.w3.org/2000/svg" xmlns:xlink="http://www.w3.org/1999/xlink" x="0px" y="0px"
	 width="320px" height="644.9px" viewBox="0 0 320 644.9" style="enable-background:new 0 0 320 644.9;" xml:space="preserve">
<style type="text/css">
	.st0{fill:#A1A7B1;}
	.st1{fill:#C5C5C5;}
	.st2{fill:#DCDFE6;}
	.st3{fill:#FFFFFF;}
	.st4{fill:#F8F8F8;}
	.st5{fill:#E0E0E0;}
	.st6{fill:#F26450;}
	.st7{fill:#8A8A8F;}
	.st8{fill:#FFFFFF;stroke:#BCBCBC;stroke-opacity:0.3;}
	.st9{fill:#D1D1D1;}
	.st10{fill:#F3F3F5;}
</style>
<g>
	<g>
		<path class="st0" d="M316.4,124.6h0.9c1.5,0,2.8,1.2,2.8,2.8v37.3c0,1.5-1.2,2.8-2.8,2.8h-0.9V124.6L316.4,124.6z M3.7,124.6H2.8
			c-1.6,0-2.8,1.2-2.8,2.8l0,0v37.3c0,1.5,1.2,2.8,2.8,2.8h0.9C3.7,167.5,3.7,124.6,3.7,124.6z M3.7,77H2.8C1.2,77,0,78.2,0,79.8
			l0,0v16.5C0,97.8,1.2,99,2.8,99h0.9C3.7,99,3.7,77,3.7,77z M3.7,175.9H2.8c-1.6,0-2.8,1.2-2.8,2.8l0,0V216c0,1.5,1.2,2.8,2.8,2.8
			h0.9C3.7,218.8,3.7,175.9,3.7,175.9z"/>
		<path class="st1" d="M38.2,0h243.5c19.9,0,35.9,16,35.9,35.8v573.3c0,19.8-16,35.8-35.8,35.8H38.2C18.4,645,2.4,629,2.4,609.2
			V35.8C2.4,16,18.4,0,38.2,0z"/>
		<path class="st2" d="M40.1,7.3h239.8c16.9,0,30.4,13.6,30.4,30.3v569.6c0,16.7-13.6,30.3-30.3,30.3H40.1
			c-16.7,0.1-30.3-13.4-30.3-30.2V37.6C9.8,20.9,23.3,7.3,40.1,7.3z"/>
		<circle class="st0" cx="107.5" cy="41.5" r="4.9"/>
		<circle class="st1" cx="160" cy="603.5" r="19.5"/>
		<path class="st3" d="M19.5,73.3h281v496h-281V73.3z"/>
		<path class="st0" d="M134.4,39.1h51.3c1.3,0,2.4,1.1,2.4,2.4l0,0c0,1.3-1.1,2.4-2.4,2.4h-51.3c-1.3,0-2.4-1.1-2.4-2.4l0,0
			C131.9,40.2,133,39.1,134.4,39.1z"/>
	</g>
	<g transform="translate(16 60)">
		<path class="st4" d="M3.5,13.3h281v48.9H3.5V13.3z"/>
		<path class="st5" d="M3.5,60.9h281v1.2H3.5V60.9z"/>
		<path class="st6" d="M267.3,43.8c0.5,0,1-0.4,1-1s-0.4-1-1-1s-1,0.4-1,1S266.8,43.8,267.3,43.8z M266.8,44.6h1.3V50h0.6v0.4H266
			V50h0.6v-5H266v-0.4H266.8z M267.4,53c3.7,0,6.7-2.9,6.7-6.7c0-3.7-2.9-6.7-6.7-6.7l0,0c-3.7,0-6.7,2.9-6.7,6.7
			C260.7,49.9,263.7,53,267.4,53z M267.4,53.6c-4,0-7.3-3.3-7.3-7.3s3.3-7.3,7.3-7.3s7.3,3.3,7.3,7.3S271.4,53.6,267.4,53.6z"/>
		<g>
			<path id="c" class="st6" d="M20.2,39.2l-6.5,6.4c-0.4,0.4-0.4,1,0,1.3l0,0l6.5,6.4c0.4,0.4,1,0.4,1.5,0c0.4-0.4,0.4-1.1,0-1.5
				l0,0l-5.5-5.4c-0.1-0.1-0.1-0.2,0-0.4l0,0l5.5-5.4c0.4-0.4,0.4-1.1,0-1.5l0,0C21.1,38.8,20.5,38.8,20.2,39.2L20.2,39.2z"/>
		</g>
	</g>
	<g>
		<path d="M86.6,83.1c0.6,0,1.2,0.2,1.7,0.6l-1.7,1.8l-1.7-1.8C85.5,83.3,86,83.1,86.6,83.1z M86.7,79.4c-1.5,0-2.9,0.5-4.2,1.5
			l-0.7-0.7c1.3-1.1,3.1-2,4.9-2s3.5,0.7,4.9,2L90.9,81C89.7,80,88.2,79.4,86.7,79.4z M86.7,81.8c-1,0-1.8,0.4-2.4,0.9l-0.9-0.9
			c0.9-0.7,2.1-1.2,3.3-1.2s2.4,0.5,3.3,1.2l-0.9,0.9C88.4,82.2,87.6,81.8,86.7,81.8z M26.9,84.3c1.3,0,2.4-1.1,2.4-2.4
			s-1.1-2.4-2.4-2.4s-2.4,1.1-2.4,2.4S25.5,84.3,26.9,84.3z M33,84.3c1.3,0,2.4-1.1,2.4-2.4s-1.1-2.4-2.4-2.4
			c-1.3,0-2.4,1.1-2.4,2.4S31.6,84.3,33,84.3z M39.1,84.3c1.3,0,2.4-1.1,2.4-2.4s-1.1-2.4-2.4-2.4c-1.3,0-2.4,1.1-2.4,2.4
			S37.7,84.3,39.1,84.3z M45.2,84.3c-1.3,0-2.4-1.1-2.4-2.4s1.1-2.4,2.4-2.4c1.3,0,2.4,1.1,2.4,2.4S46.5,84.3,45.2,84.3z M51.3,84.3
			c-1.3,0-2.4-1.1-2.4-2.4s1.1-2.4,2.4-2.4c1.3,0,2.4,1.1,2.4,2.4S52.7,84.3,51.3,84.3z M51.3,83.8c1.1,0,2-0.9,2-2s-0.9-2-2-2
			s-2,0.9-2,2C49.4,82.9,50.2,83.8,51.3,83.8z M147.8,80.9L147.8,80.9h0.7l0,0c0-0.5,0.4-0.9,0.9-0.9s0.9,0.4,0.9,0.7
			c0,0.4-0.1,0.6-0.7,1.2l-1.6,1.6V84h3.2v-0.6H149l0,0l1-1.1c0.7-0.7,1-1.2,1-1.7c0-0.7-0.6-1.3-1.6-1.3
			C148.4,79.4,147.8,80,147.8,80.9z M152.5,83.7c0.2,0,0.5-0.2,0.5-0.5l0,0c0-0.2-0.2-0.5-0.5-0.5l0,0c-0.2,0-0.5,0.2-0.5,0.5l0,0
			C152,83.4,152.2,83.7,152.5,83.7z M152.5,81.2c0.2,0,0.5-0.2,0.5-0.5l0,0c0-0.2-0.2-0.5-0.5-0.5l0,0c-0.2,0-0.5,0.2-0.5,0.5l0,0
			C152,81,152.2,81.2,152.5,81.2z M156.1,84.2v-0.9h-2.2v-0.7c0.4-0.7,1.1-1.8,2-3.1h1v3.1h0.6v0.6h-0.6V84L156.1,84.2L156.1,84.2z
			 M154.5,82.6L154.5,82.6h1.6v-2.4l0,0C155.6,81,155,81.7,154.5,82.6z M160,84.3c1,0,1.7-0.6,1.7-1.6s-0.6-1.6-1.5-1.6
			c-0.5,0-0.7,0.1-1,0.4l0,0l0.1-1.3h2.2v-0.6h-2.7l-0.2,2.7h0.6c0.1-0.2,0.5-0.5,0.9-0.5c0.6,0,1,0.4,1,1s-0.4,1-1,1
			c-0.5,0-0.9-0.2-1-0.7h-0.7C158.4,83.7,159.1,84.3,160,84.3z M164.4,79.5h1.8c0.9,0,1.6,0.6,1.6,1.6c0,0.9-0.6,1.6-1.6,1.6h-1.1
			v1.6h-0.7V79.5z M165.2,80.1V82h0.9c0.6,0,1-0.4,1-0.9c0-0.6-0.4-0.9-1-0.9L165.2,80.1L165.2,80.1z M169.4,84.2v-3.4l0,0l1.3,3.2
			h0.5l1.3-3.2l0,0v3.4h0.7v-4.6h-0.9l-1.5,3.5l0,0l-1.5-3.5h-0.9v4.6H169.4L169.4,84.2z"/>
		<path d="M280.1,80.4v4.2c0,0.4,0.2,0.6,0.6,0.6h12.6c0.4,0,0.6-0.2,0.6-0.6v-4.2c0-0.4-0.2-0.6-0.6-0.6l0,0h-12.6
			C280.4,79.8,280.1,80,280.1,80.4z M279.7,80.4c0-0.5,0.5-1,1-1h12.6c0.5,0,1,0.5,1,1v4.2c0,0.5-0.5,1-1,1h-12.6c-0.5,0-1-0.4-1-1
			l0,0V80.4z M281.6,80H292v4.8h-10.4c-0.7,0-1.2-0.5-1.2-1.2l0,0v-2.4C280.4,80.6,281,80,281.6,80z M294.7,81.4h0.5
			c0.2,0,0.5,0.2,0.5,0.5v1.2c0,0.2-0.2,0.5-0.5,0.5h-0.5V81.4L294.7,81.4z"/>
		<path d="M264.1,84.3c-0.7,0-1.3-0.5-1.5-1.2h0.6c0.1,0.5,0.5,0.7,0.9,0.7c0.7,0,1.1-0.7,1.1-2l0,0c-0.2,0.5-0.6,0.7-1.2,0.7
			c-0.9,0-1.5-0.6-1.5-1.6s0.6-1.6,1.6-1.6c0.6,0,1.2,0.4,1.5,1.1c0.1,0.4,0.2,0.7,0.2,1.3C265.8,83.3,265.2,84.3,264.1,84.3z
			 M264.2,82.1c0.6,0,1-0.5,1-1.1s-0.5-1.1-1-1.1s-1,0.5-1,1.1C263.3,81.6,263.6,82.1,264.2,82.1L264.2,82.1z M268.3,84.3
			c-1,0-1.6-0.9-1.6-2.4s0.6-2.4,1.6-2.4s1.6,0.9,1.6,2.4C269.7,83.4,269.2,84.3,268.3,84.3L268.3,84.3z M268.3,83.8
			c0.6,0,1-0.7,1-2s-0.4-2-1-2s-1,0.7-1,2C267.2,83.1,267.5,83.8,268.3,83.8z M273.9,83.8c0.2,0,0.5-0.2,0.5-0.7s-0.1-0.7-0.5-0.7
			s-0.5,0.2-0.5,0.7S273.6,83.8,273.9,83.8L273.9,83.8z M273.9,84.3c-0.5,0-1-0.5-1-1.1s0.4-1.1,1-1.1s1,0.5,1,1.1
			S274.5,84.3,273.9,84.3L273.9,84.3z M271.3,81.7c-0.5,0-1-0.5-1-1.1s0.4-1.1,1-1.1s1,0.5,1,1.1S271.9,81.7,271.3,81.7z
			 M271.3,84.2h-0.6l1.7-2.4l1.6-2.2h0.6l-1.7,2.4L271.3,84.2L271.3,84.2z M271.3,81.2c0.2,0,0.5-0.2,0.5-0.7s-0.1-0.7-0.5-0.7
			s-0.5,0.2-0.5,0.7C271,81,271.1,81.2,271.3,81.2z"/>
	</g>
	<g transform="translate(16 418)">
		<g>
			<path id="e_1_" d="M3.5,92.6h281v58.6H3.5V92.6z"/>
		</g>
		<g>
			<path id="e_2_" class="st3" d="M3.5,92.6h281v58.6H3.5"/>
		</g>
		<path class="st7" d="M25.4,114.6h5c0.4,0,0.9,0.2,1,0.5l1.5,2c0.1,0.2,0.4,0.4,0.6,0.4h3.1c0.7,0,1.2,0.5,1.2,1.2v8.9
			c0,0.7-0.6,1.2-1.2,1.2H19.4c-0.7,0-1.2-0.5-1.2-1.2v-8.9c0-0.7,0.6-1.2,1.2-1.2h3.1c0.2,0,0.5-0.1,0.6-0.2l1.3-2
			C24.7,114.9,25,114.6,25.4,114.6L25.4,114.6z M32.7,118.9c0,0.4,0.2,0.6,0.6,0.6c0.4,0,0.6-0.2,0.6-0.6l0,0c0-0.4-0.2-0.6-0.6-0.6
			C33,118.3,32.7,118.5,32.7,118.9L32.7,118.9z M23.6,122.9c0,2.3,2,4.3,4.4,4.3s4.4-2,4.4-4.3s-2-4.3-4.4-4.3
			S23.6,120.5,23.6,122.9z M20,115.2h1.2c0.4,0,0.6,0.2,0.6,0.6v0.6h-2.4v-0.6C19.4,115.5,19.8,115.2,20,115.2z M24.6,122.9
			c0-1.8,1.6-3.4,3.4-3.4s3.4,1.5,3.4,3.4s-1.6,3.4-3.4,3.4C26.1,126.3,24.6,124.8,24.6,122.9z"/>
		<path class="st8" d="M67.1,107.3h188.1c8.1,0,14.7,6.6,14.7,14.7l0,0c0,8.1-6.6,14.7-14.7,14.7H67.1c-8.1,0-14.7-6.6-14.7-14.7
			l0,0C52.4,113.9,59,107.3,67.1,107.3z"/>
		<path class="st7" d="M255.2,131.7c-5.4,0-9.8-4.4-9.8-9.8s4.4-9.8,9.8-9.8s9.8,4.4,9.8,9.8C265,127.3,260.6,131.7,255.2,131.7z
			 M255.2,115.2c-1.2,0-2.1,1-2.1,2.1v5c0,1.2,1,2.1,2.1,2.1c1.2,0,2.1-1,2.1-2.1l0,0v-5C257.3,116.1,256.4,115.2,255.2,115.2
			L255.2,115.2z M259,119.9c-0.2,0-0.5,0.2-0.5,0.5v2c0,1.7-1.5,3.2-3.2,3.2s-3.2-1.5-3.2-3.2l0,0v-2c0-0.2-0.2-0.5-0.5-0.5
			c-0.2,0-0.5,0.2-0.5,0.5v2c0,2.2,1.6,3.9,3.8,4.3v1.1h-1.5c-0.2,0-0.5,0.2-0.5,0.5c0,0.2,0.2,0.5,0.5,0.5h3.9
			c0.2,0,0.5-0.2,0.5-0.5c0-0.2-0.2-0.5-0.5-0.5l0,0h-1.5v-1.1c2.1-0.2,3.8-2.1,3.8-4.3v-2C259.5,120,259.2,119.9,259,119.9
			L259,119.9z"/>
		<path class="st9" d="M72.4,119.9l-1.7,5.7h-1.1l-2.1-7.7h1.2l1.5,6h0.1l1.6-6H73l1.6,6h0.1l1.5-6h1.2l-2.2,7.7h-1.1L72.4,119.9
			C72.6,119.9,72.4,119.9,72.4,119.9z M78.2,125.6v-5.9h1.1v0.9l0,0c0.1-0.6,0.9-1,1.6-1c0.1,0,0.4,0,0.5,0v1.1
			c-0.2,0-0.4-0.1-0.6-0.1c-0.9,0-1.5,0.6-1.5,1.3v3.7H78.2z M82.3,125.6v-5.9h1.1v5.9H82.3z M82.9,118.8c-0.5,0-0.7-0.4-0.7-0.7
			c0-0.4,0.4-0.7,0.7-0.7c0.5,0,0.7,0.4,0.7,0.7C83.7,118.4,83.3,118.8,82.9,118.8z M85.4,118.3h1.1v1.5h1.2v1h-1.2v3.1
			c0,0.6,0.2,0.9,0.9,0.9c0.1,0,0.2,0,0.5,0v1c-0.2,0-0.4,0-0.6,0c-1.3,0-1.8-0.5-1.8-1.6v-3.3h-1v-1h1L85.4,118.3L85.4,118.3z
			 M91.3,120.6c-0.9,0-1.5,0.6-1.5,1.5h2.9C92.7,121.2,92.1,120.6,91.3,120.6z M92.7,124h1.1c-0.2,1.1-1.2,1.7-2.6,1.7
			c-1.7,0-2.7-1.1-2.7-3.1c0-1.8,1.1-3.1,2.7-3.1s2.6,1.1,2.6,2.9v0.4h-4.2v0.1c0,1,0.6,1.7,1.6,1.7C92,124.8,92.5,124.5,92.7,124
			L92.7,124z M98.5,127.7c-0.1,0-0.4,0-0.5,0v-1c0.1,0,0.2,0,0.4,0c0.5,0,0.9-0.2,1.1-0.9l0.1-0.2l-2.1-5.9h1.2l1.3,4.6h0.1l1.5-4.6
			h1.2l-2.2,6.1C100.2,127.3,99.6,127.7,98.5,127.7L98.5,127.7z M106,125.7c-1.7,0-2.8-1.1-2.8-3.1c0-1.8,1.1-3.1,2.8-3.1
			c1.7,0,2.8,1.1,2.8,3.1S107.7,125.7,106,125.7z M106,124.8c1,0,1.6-0.7,1.6-2s-0.6-2-1.6-2s-1.6,0.7-1.6,2S105.1,124.8,106,124.8
			L106,124.8z M115,119.8v5.9h-1.1v-1h-0.1c-0.2,0.6-0.9,1.1-1.7,1.1c-1.3,0-2-0.7-2-2.2v-3.8h1v3.5c0,1,0.4,1.3,1.2,1.3
			c1,0,1.5-0.6,1.5-1.5v-3.4L115,119.8L115,119.8z M116.3,125.6v-5.9h1.1v0.9h0.1c0.1-0.6,0.9-1,1.6-1c0.1,0,0.4,0,0.5,0v1.1
			c-0.2,0-0.5-0.1-0.6-0.1c-0.9,0-1.5,0.6-1.5,1.3v3.7H116.3L116.3,125.6z M123.4,125.6v-5.9h1.1v1l0,0c0.2-0.6,0.9-1.1,1.6-1.1
			c0.9,0,1.3,0.4,1.6,1.1h0.1c0.2-0.6,1-1.1,1.8-1.1c1.2,0,1.8,0.7,1.8,2v4h-1.1v-3.7c0-0.7-0.4-1.2-1.1-1.2c-0.7,0-1.2,0.5-1.2,1.2
			v3.7h-1.1v-3.8c0-0.6-0.5-1.1-1.1-1.1c-0.7,0-1.2,0.6-1.2,1.3v3.5L123.4,125.6L123.4,125.6z M135.4,120.6c-0.9,0-1.5,0.6-1.5,1.5
			h2.9C136.7,121.2,136.2,120.6,135.4,120.6z M136.7,124h1.1c-0.2,1.1-1.2,1.7-2.6,1.7c-1.7,0-2.7-1.1-2.7-3.1
			c0-1.8,1.1-3.1,2.7-3.1s2.6,1.1,2.6,2.9v0.4h-4.2v0.1c0,1,0.6,1.7,1.6,1.7C136.1,124.8,136.6,124.5,136.7,124L136.7,124z
			 M138.9,121.5c0-1,1-1.7,2.3-1.7s2.2,0.6,2.3,1.6h-1.1c-0.1-0.5-0.5-0.7-1.2-0.7c-0.6,0-1.1,0.4-1.1,0.7c0,0.4,0.2,0.6,1,0.7
			l1,0.2c1.1,0.2,1.6,0.7,1.6,1.6c0,1.1-1,1.8-2.4,1.8c-1.3,0-2.3-0.6-2.4-1.7h1.1c0.1,0.5,0.6,0.7,1.2,0.7c0.7,0,1.2-0.4,1.2-0.7
			c0-0.4-0.2-0.6-0.9-0.7l-1-0.2C139.5,122.8,138.9,122.3,138.9,121.5z M144.5,121.5c0-1,1-1.7,2.3-1.7s2.2,0.6,2.3,1.6H148
			c-0.1-0.5-0.5-0.7-1.2-0.7c-0.6,0-1.1,0.4-1.1,0.7c0,0.4,0.2,0.6,1,0.7l1,0.2c1.1,0.2,1.6,0.7,1.6,1.6c0,1.1-1,1.8-2.4,1.8
			c-1.3,0-2.3-0.6-2.4-1.7h1.1c0.1,0.5,0.6,0.7,1.2,0.7c0.7,0,1.2-0.4,1.2-0.7c0-0.4-0.2-0.6-0.9-0.7l-1-0.2
			C145,122.8,144.5,122.3,144.5,121.5z M152.3,124.8c0.9,0,1.5-0.6,1.5-1.2V123l-1.5,0.1c-0.9,0-1.2,0.4-1.2,0.9
			C151.2,124.4,151.7,124.8,152.3,124.8L152.3,124.8z M152,125.7c-1.1,0-2-0.7-2-1.7c0-1.1,0.7-1.7,2.2-1.7l1.6-0.1v-0.5
			c0-0.6-0.4-1-1.2-1c-0.6,0-1.1,0.2-1.2,0.6h-1.1c0.1-1,1.1-1.6,2.4-1.6c1.5,0,2.3,0.7,2.3,2v3.9h-1.2v-0.9l0,0
			C153.4,125.4,152.8,125.7,152,125.7z M158.8,124.5c1,0,1.6-0.7,1.6-2c0-1.2-0.6-2-1.6-2s-1.6,0.7-1.6,2S157.8,124.5,158.8,124.5z
			 M158.8,127.8c-1.5,0-2.4-0.6-2.6-1.6h1.2c0.1,0.4,0.6,0.7,1.3,0.7c1,0,1.6-0.5,1.6-1.2v-1.1h-0.1c-0.4,0.6-1,1-1.8,1
			c-1.5,0-2.4-1.1-2.4-2.9s1-2.9,2.4-2.9c0.9,0,1.5,0.4,1.8,1h0.1v-1h1.1v5.9C161.5,127,160.5,127.8,158.8,127.8L158.8,127.8z
			 M165.4,120.6c-0.9,0-1.5,0.6-1.5,1.5h2.9C166.8,121.2,166.3,120.6,165.4,120.6L165.4,120.6z M166.9,124h1.1
			c-0.2,1.1-1.2,1.7-2.6,1.7c-1.7,0-2.7-1.1-2.7-3.1c0-1.8,1.1-3.1,2.7-3.1s2.6,1.1,2.6,2.9v0.4h-4.2v0.1c0,1,0.6,1.7,1.6,1.7
			C166.1,124.8,166.6,124.5,166.9,124z M170.1,125.7c-0.5,0-0.7-0.4-0.7-0.7l0,0c0-0.5,0.4-0.9,0.7-0.9c0.5,0,0.7,0.4,0.7,0.9
			C170.9,125.4,170.5,125.7,170.1,125.7z M173,125.7c-0.5,0-0.7-0.4-0.7-0.7l0,0c0-0.5,0.4-0.9,0.7-0.9c0.5,0,0.7,0.4,0.7,0.9
			C173.7,125.4,173.5,125.7,173,125.7z M175.8,125.7c-0.5,0-0.7-0.4-0.7-0.7l0,0c0-0.5,0.4-0.9,0.7-0.9c0.5,0,0.7,0.4,0.7,0.9
			C176.5,125.4,176.3,125.7,175.8,125.7z"/>
	</g>
	<g>
		<path class="st9" d="M284.6,491.1c6.1,0,11-4.9,11-11s-4.9-11-11-11l0,0c-6.1,0-11,4.9-11,11S278.5,491.1,284.6,491.1z"/>
		<path class="st3" d="M284.6,480.1c2.1,0,3.7-1.7,3.5-3.8c0-2-1.6-3.5-3.5-3.5c-2.1,0-3.7,1.7-3.5,3.8
			C281.1,478.5,282.7,480.1,284.6,480.1z"/>
		<path class="st3" d="M290.7,482.5c-0.1-0.2-0.2-0.5-0.4-0.6c-0.7-1-1.8-1.7-3.1-1.8c-0.1,0-0.4,0-0.5,0.1c-1.3,1-3.1,1-4.4,0
			c-0.1-0.1-0.2-0.1-0.5-0.1c-1.2,0.1-2.3,0.9-3.1,1.8c-0.1,0.2-0.2,0.4-0.4,0.6c0,0.1,0,0.2,0,0.2c0.1,0.2,0.2,0.4,0.4,0.6
			c0.2,0.2,0.5,0.5,0.7,0.7s0.5,0.4,0.7,0.6c1.2,0.9,2.7,1.3,4.2,1.3c1.6,0,2.9-0.5,4.3-1.3c0.2-0.2,0.5-0.4,0.7-0.6
			s0.5-0.5,0.7-0.7c0.1-0.2,0.2-0.4,0.4-0.6C290.7,482.8,290.7,482.7,290.7,482.5z"/>
		<g transform="translate(148 374)">
			<path class="st6" d="M49.9,82.9h53.8c9.4,0,17.1,7.7,17.1,17.1l0,0c0,9.4-7.7,17.1-17.1,17.1H49.9c-9.4,0-17.1-7.7-17.1-17.1l0,0
				C32.8,90.6,40.5,82.9,49.9,82.9z"/>
			<path class="st6" d="M120,97.5c0,0-0.2,8.7,0.4,12.8c0.6,4.2,4,6.4,4,6.4c0.2,0.2,0.2,0.4-0.1,0.4c0,0-5.6,0.1-10.6-3.9
				C108.4,109,120,97.5,120,97.5z"/>
		</g>
		<path class="st10" d="M61.1,398.2H259c10.8,0,19.5,8.8,19.5,19.5v9.8c0,10.8-8.8,19.5-19.5,19.5H78.2c-10.8,0-19.5-8.8-19.5-19.5
			v-26.9C58.6,399.3,59.7,398.2,61.1,398.2z"/>
		<path class="st10" d="M78.2,346.9h161.3c10.8,0,19.5,8.8,19.5,19.5v9.8c0,10.8-8.8,19.5-19.5,19.5H61.1c-1.3,0-2.4-1.1-2.4-2.4
			v-26.9C58.6,355.7,67.4,346.9,78.2,346.9z"/>
		<path class="st9" d="M284.6,337.2c6.1,0,11-4.9,11-11s-4.9-11-11-11l0,0c-6.1,0-11,4.9-11,11C273.6,332.3,278.5,337.2,284.6,337.2
			z"/>
		<path class="st3" d="M284.6,326.2c2.1,0,3.7-1.7,3.5-3.8c0-2-1.6-3.5-3.5-3.5c-2.1,0-3.7,1.7-3.5,3.8
			C281.1,324.6,282.7,326.2,284.6,326.2z"/>
		<path class="st3" d="M290.7,328.6c-0.1-0.2-0.2-0.5-0.4-0.6c-0.7-1-1.8-1.7-3.1-1.8c-0.1,0-0.4,0-0.5,0.1c-1.3,1-3.1,1-4.4,0
			c-0.1-0.1-0.2-0.1-0.5-0.1c-1.2,0.1-2.3,0.9-3.1,1.8c-0.1,0.2-0.2,0.4-0.4,0.6c0,0.1,0,0.2,0,0.2c0.1,0.2,0.2,0.4,0.4,0.6
			c0.2,0.2,0.5,0.5,0.7,0.7s0.5,0.4,0.7,0.6c1.2,0.9,2.7,1.3,4.2,1.3c1.6,0,2.9-0.5,4.3-1.3c0.2-0.2,0.5-0.4,0.7-0.6
			s0.5-0.5,0.7-0.7c0.1-0.2,0.2-0.4,0.4-0.6C290.7,328.9,290.7,328.7,290.7,328.6z"/>
		<g transform="translate(65 236)">
			<path class="st6" d="M33.9,52.3h150.3c10.8,0,19.5,8.8,19.5,19.5v9.8c0,10.8-8.8,19.5-19.5,19.5H33.9c-10.8,0-19.5-8.8-19.5-19.5
				v-9.8C14.4,61.1,23.2,52.3,33.9,52.3z"/>
			<path class="st6" d="M203,81.6c0,0-0.2,8.7,0.4,12.8c0.6,4.2,4,6.4,4,6.4c0.2,0.2,0.2,0.4-0.1,0.4c0,0-5.6,0.1-10.6-3.9
				C191.4,93.1,203,81.6,203,81.6z"/>
		</g>
		<g>
			<path class="st9" d="M284.6,283.4c6.1,0,11-4.9,11-11s-4.9-11-11-11l0,0c-6.1,0-11,4.9-11,11S278.5,283.4,284.6,283.4z"/>
			<path class="st3" d="M284.6,272.4c2.1,0,3.7-1.7,3.5-3.8c0-2-1.6-3.5-3.5-3.5c-2.1,0-3.7,1.7-3.5,3.8
				C281.1,270.8,282.7,272.4,284.6,272.4z"/>
			<path class="st3" d="M290.7,275c-0.1-0.2-0.2-0.5-0.4-0.6c-0.7-1-1.8-1.7-3.1-1.8c-0.1,0-0.4,0-0.5,0.1c-1.3,1-3.1,1-4.4,0
				c-0.1-0.1-0.2-0.1-0.5-0.1c-1.2,0.1-2.3,0.9-3.1,1.8c-0.1,0.2-0.2,0.4-0.4,0.6c0,0.1,0,0.2,0,0.2c0.1,0.2,0.2,0.4,0.4,0.6
				c0.2,0.2,0.5,0.5,0.7,0.7s0.5,0.4,0.7,0.6c1.2,0.9,2.7,1.3,4.2,1.3c1.6,0,2.9-0.5,4.3-1.3c0.2-0.2,0.5-0.4,0.7-0.6
				s0.5-0.5,0.7-0.7c0.1-0.2,0.2-0.4,0.4-0.6C290.7,275.1,290.7,275,290.7,275L290.7,275z"/>
		</g>
		<g transform="translate(143 204)">
			<path class="st6" d="M48.8,45.2h59.9c9.4,0,17.1,7.7,17.1,17.1l0,0c0,9.4-7.7,17.1-17.1,17.1H48.8c-9.4,0-17.1-7.7-17.1-17.1l0,0
				C31.7,52.9,39.4,45.2,48.8,45.2z"/>
			<path class="st6" d="M125,59.9c0,0-0.2,8.7,0.4,12.8c0.6,4.2,4,6.4,4,6.4c0.2,0.2,0.2,0.4-0.1,0.4c0,0-5.6,0.1-10.6-3.9
				C113.4,71.3,125,59.9,125,59.9z"/>
		</g>
		<g transform="translate(48 156)">
			<path class="st10" d="M30.2,34.6h166.1c10.8,0,19.5,8.8,19.5,19.5v9.8c0,10.8-8.8,19.5-19.5,19.5H30.2
				c-10.8,0-19.5-8.8-19.5-19.5v-9.8C10.6,43.4,19.4,34.6,30.2,34.6z"/>
		</g>
		<g>
			<path class="st9" d="M284.6,180.8c6.1,0,11-4.9,11-11s-4.9-11-11-11l0,0c-6.1,0-11,4.9-11,11S278.5,180.8,284.6,180.8z"/>
			<path class="st3" d="M284.6,169.8c2.1,0,3.7-1.7,3.5-3.8c0-2-1.6-3.5-3.5-3.5c-2.1,0-3.7,1.7-3.5,3.8
				C281.1,168.2,282.7,169.8,284.6,169.8z"/>
			<path class="st3" d="M290.7,172.4c-0.1-0.2-0.2-0.5-0.4-0.6c-0.7-1-1.8-1.7-3.1-1.8c-0.1,0-0.4,0-0.5,0.1c-1.3,1-3.1,1-4.4,0
				c-0.1-0.1-0.2-0.1-0.5-0.1c-1.2,0.1-2.3,0.9-3.1,1.8c-0.1,0.2-0.2,0.4-0.4,0.6c0,0.1,0,0.2,0,0.2c0.1,0.2,0.2,0.4,0.4,0.6
				c0.2,0.2,0.5,0.5,0.7,0.7s0.5,0.4,0.7,0.6c1.2,0.9,2.7,1.3,4.2,1.3c1.6,0,2.9-0.5,4.3-1.3c0.2-0.2,0.5-0.4,0.7-0.6
				c0.2-0.2,0.5-0.5,0.7-0.7c0.1-0.2,0.2-0.4,0.4-0.6C290.7,172.5,290.7,172.4,290.7,172.4L290.7,172.4z"/>
		</g>
		<g transform="translate(48 108)">
			<path class="st6" d="M30.2,23.9h171c10.8,0,19.5,8.8,19.5,19.5v9.8c0,10.8-8.8,19.5-19.5,19.5h-171c-10.8,0-19.5-8.8-19.5-19.5
				v-9.8C10.6,32.7,19.4,23.9,30.2,23.9z"/>
			<path class="st6" d="M220,53.3c0,0-0.2,8.7,0.4,12.8c0.6,4.2,4,6.4,4,6.4c0.2,0.2,0.2,0.4-0.1,0.4c0,0-5.6,0.1-10.6-3.9
				C208.4,64.7,220,53.3,220,53.3z"/>
		</g>
	</g>
</g>
<path class="st3" d="M43.2,381.7L43.2,381.7L43.2,381.7z M47.6,378.4c-0.5-0.9-0.8-1.7-1-2.2c-0.3-0.8-0.3-1.6-0.2-2.3
	c0.1-0.8,0.5-1.5,1.1-2.1c0.6-0.7,1.5-1.1,2.5-1.3c-0.4,0.2-0.7,0.5-1,0.7c-0.6,0.6-1.1,1.4-1.3,2.2c-0.2,0.8-0.1,1.6,0.2,2.3
	c0.1,0.4,0.3,0.8,0.6,1.4C48.1,377.4,47.7,377.9,47.6,378.4z M47.6,378.4L47.6,378.4L47.6,378.4z M50.5,372.6
	c0.5-0.5,1.2-0.7,2.1-0.5c0.9,0.2,1.8,0.7,2.6,1.5c1.1,1,2,3.3,2,3.3l1.2-1.9c-0.6-0.7-1.1-1.4-1.6-1.9c-1.4-1.4-2.7-2.2-4-2.4
	c-1.3-0.2-2.4,0.2-3.3,1.1c-0.8,0.8-1.1,1.8-1,2.7c0.1,0.6,0.4,1.2,0.8,2.3c0.2-0.1,0.4-0.1,0.5-0.1c0.3,0,0.7,0,1,0.1 M57.2,376.8
	L57.2,376.8L57.2,376.8z"/>
<path class="st6" d="M39.6,215L39.6,215c2.2,0,4.1,0.5,6,1.6s3.3,2.5,4.4,4.4c1.1,1.9,1.6,3.8,1.6,6l0,0l0,0c0,2.2-0.5,4.1-1.6,6
	s-2.5,3.3-4.4,4.4c-1.9,1.1-3.8,1.6-6,1.6s-4.1-0.5-6-1.6c-1.9-1.1-3.3-2.5-4.4-4.4s-1.6-3.8-1.6-6s0.5-4.1,1.6-6s2.5-3.3,4.4-4.4
	C35.5,215.5,37.3,215,39.6,215L39.6,215z"/>
<path class="st3" d="M42,181.6L42,181.6L42,181.6c0.2,0,0.4,0.1,0.6,0.2c0.2,0.1,0.3,0.2,0.4,0.4c0.1,0.2,0.2,0.4,0.2,0.6l0,0l0,0
	c0,0.2-0.1,0.4-0.2,0.6c-0.1,0.2-0.2,0.3-0.4,0.4S42.2,184,42,184s-0.4,0-0.6-0.2s-0.3-0.2-0.4-0.4c-0.1-0.2-0.2-0.4-0.2-0.6
	c0-0.2,0-0.4,0.2-0.6c0.1-0.2,0.2-0.3,0.4-0.4C41.6,181.7,41.8,181.6,42,181.6z"/>
<path class="st3" d="M24.6,181.6L24.6,181.6L24.6,181.6c0.2,0,0.4,0.1,0.6,0.2c0.2,0.1,0.3,0.2,0.4,0.4s0.2,0.4,0.2,0.6l0,0l0,0
	c0,0.2-0.1,0.4-0.2,0.6c-0.1,0.2-0.2,0.3-0.4,0.4s-0.4,0.2-0.6,0.2s-0.4,0-0.6-0.2s-0.3-0.2-0.4-0.4s-0.2-0.4-0.2-0.6
	c0-0.2,0.1-0.4,0.2-0.6c0.1-0.2,0.2-0.3,0.4-0.4C24.2,181.7,24.4,181.6,24.6,181.6z"/>
<path class="st3" d="M33.3,181.6L33.3,181.6L33.3,181.6c0.2,0,0.4,0.1,0.6,0.2c0.2,0.1,0.3,0.2,0.4,0.4c0.1,0.2,0.2,0.4,0.2,0.6l0,0
	l0,0c0,0.2-0.1,0.4-0.2,0.6c-0.1,0.2-0.2,0.3-0.4,0.4s-0.4,0.2-0.6,0.2c-0.2,0-0.4,0-0.6-0.2s-0.3-0.2-0.4-0.4
	c-0.1-0.2-0.2-0.4-0.2-0.6c0-0.2,0.1-0.4,0.2-0.6c0.1-0.2,0.2-0.3,0.4-0.4C32.9,181.7,33.1,181.6,33.3,181.6z"/>
<path class="st3" d="M26.6,185.5c0,0,0.8,2.8,1.7,3.6c0.9,0.9,1.1,0.9,2,0.9s1.4-0.2,2-0.9c0.6-0.6,0.9-1.4,0.8-2.2
	c-0.1-0.5-0.3-1.1-0.6-1.9c0.3,0.1,0.6,0.2,0.8,0.2c0.3,0,0.5,0,0.7-0.1c0.3,0.7,0.4,1.3,0.5,1.9c0.1,1.1-0.2,2.1-1.1,2.9
	c-0.8,0.8-1.9,1.3-3.1,1.4c-1.3,0.1-1.8-0.2-3.1-1.4c-0.5-0.5-1.1-1.3-1.9-2.4L26.6,185.5z M26.6,185.5L26.6,185.5L26.6,185.5z
	 M31,182.2c-0.5-0.9-0.8-1.7-1-2.2c-0.3-0.8-0.3-1.6-0.2-2.3c0.1-0.8,0.5-1.5,1.1-2.1c0.6-0.7,1.5-1.1,2.5-1.3
	c-0.4,0.2-0.7,0.5-1,0.7c-0.6,0.6-1.1,1.4-1.3,2.2c-0.2,0.8-0.1,1.6,0.2,2.3c0.1,0.4,0.3,0.8,0.6,1.4
	C31.5,181.2,31.1,181.6,31,182.2z M31,182.2L31,182.2L31,182.2z M40.5,180.6l1.2-1.9c-0.6-0.7-1.1-1.4-1.6-1.9
	c-1.4-1.4-2.7-2.2-4-2.4s-2.4,0.2-3.3,1.1c-0.8,0.8-1.1,1.8-1,2.7c0.1,0.6,0.3,1.2,0.8,2.3c0.2-0.1,0.3-0.1,0.5-0.1
	c0.3,0,0.7,0,1,0.1c-0.5-1-0.7-1.8-0.8-2.3c-0.1-0.7,0.1-1.4,0.6-1.9s1.2-0.7,2.1-0.5c0.9,0.2,1.7,0.7,2.6,1.5
	C39.6,178.4,40.5,180.6,40.5,180.6z M40.5,180.6L40.5,180.6L40.5,180.6z M35.6,183.6c-0.2,0.5-0.5,0.9-0.9,1.2
	c0.2,0.4,0.3,0.8,0.3,1.1c0.2,0.8,0.2,1.6,0,2.4c-0.2,0.8-0.6,1.6-1.2,2.2c-0.7,0.7-1.4,1.1-2,1.2c1.3,0.2,2.5-0.3,3.5-1.3
	c0.7-0.7,1.1-1.5,1.3-2.4s0.1-1.7-0.1-2.5C36.2,185.1,36,184.4,35.6,183.6z"/>
<path class="st3" d="M48.3,225.8L48.3,225.8L48.3,225.8c0.2,0,0.4,0.1,0.6,0.2c0.2,0.1,0.3,0.2,0.4,0.4c0.1,0.2,0.2,0.4,0.2,0.6l0,0
	l0,0c0,0.2-0.1,0.4-0.2,0.6c-0.1,0.2-0.2,0.3-0.4,0.4s-0.4,0.2-0.6,0.2s-0.4,0-0.6-0.2s-0.3-0.2-0.4-0.4c-0.1-0.2-0.2-0.4-0.2-0.6
	c0-0.2,0-0.4,0.2-0.6c0.1-0.2,0.2-0.3,0.4-0.4C47.9,225.9,48.1,225.8,48.3,225.8z"/>
<path class="st3" d="M30.9,225.8L30.9,225.8L30.9,225.8c0.2,0,0.4,0.1,0.6,0.2c0.2,0.1,0.3,0.2,0.4,0.4s0.2,0.4,0.2,0.6l0,0l0,0
	c0,0.2-0.1,0.4-0.2,0.6c-0.1,0.2-0.2,0.3-0.4,0.4s-0.4,0.2-0.6,0.2s-0.4,0-0.6-0.2s-0.3-0.2-0.4-0.4s-0.2-0.4-0.2-0.6
	c0-0.2,0.1-0.4,0.2-0.6c0.1-0.2,0.2-0.3,0.4-0.4C30.5,225.9,30.7,225.8,30.9,225.8z"/>
<path class="st3" d="M39.6,225.8L39.6,225.8L39.6,225.8c0.2,0,0.4,0.1,0.6,0.2c0.2,0.1,0.3,0.2,0.4,0.4c0.1,0.2,0.2,0.4,0.2,0.6l0,0
	l0,0c0,0.2-0.1,0.4-0.2,0.6c-0.1,0.2-0.2,0.3-0.4,0.4s-0.4,0.2-0.6,0.2c-0.2,0-0.4,0-0.6-0.2s-0.3-0.2-0.4-0.4
	c-0.1-0.2-0.2-0.4-0.2-0.6c0-0.2,0.1-0.4,0.2-0.6c0.1-0.2,0.2-0.3,0.4-0.4C39.2,225.9,39.4,225.8,39.6,225.8z"/>
<path class="st3" d="M32.9,229.7c0,0,0.8,2.8,1.7,3.6c0.9,0.9,1.1,0.9,2,0.9s1.4-0.2,2-0.9c0.6-0.6,0.9-1.4,0.8-2.2
	c-0.1-0.5-0.3-1.1-0.6-1.9c0.3,0.1,0.6,0.2,0.8,0.2c0.3,0,0.5,0,0.7-0.1c0.3,0.7,0.4,1.3,0.5,1.9c0.1,1.1-0.2,2.1-1.1,2.9
	c-0.8,0.8-1.9,1.3-3.1,1.4c-1.3,0.1-1.8-0.2-3.1-1.4c-0.5-0.5-1.1-1.3-1.9-2.4L32.9,229.7z M32.9,229.7L32.9,229.7L32.9,229.7z
	 M37.3,226.4c-0.5-0.9-0.8-1.7-1-2.2c-0.3-0.8-0.3-1.6-0.2-2.3c0.1-0.8,0.5-1.5,1.1-2.1c0.6-0.7,1.5-1.1,2.5-1.3
	c-0.4,0.2-0.7,0.5-1,0.7c-0.6,0.6-1.1,1.4-1.3,2.2s-0.1,1.6,0.2,2.3c0.1,0.4,0.3,0.8,0.6,1.4C37.8,225.4,37.4,225.8,37.3,226.4z
	 M37.3,226.4L37.3,226.4L37.3,226.4z M46.8,224.8l1.2-1.9c-0.6-0.7-1.1-1.4-1.6-1.9c-1.4-1.4-2.7-2.2-4-2.4s-2.4,0.2-3.3,1.1
	c-0.8,0.8-1.1,1.8-1,2.7c0.1,0.6,0.3,1.2,0.8,2.3c0.2-0.1,0.3-0.1,0.5-0.1c0.3,0,0.7,0,1,0.1c-0.5-1-0.7-1.8-0.8-2.3
	c-0.1-0.7,0.1-1.4,0.6-1.9s1.2-0.7,2.1-0.5c0.9,0.2,1.7,0.7,2.6,1.5C45.9,222.6,46.8,224.8,46.8,224.8z M46.8,224.8L46.8,224.8
	L46.8,224.8z M41.9,227.8c-0.2,0.5-0.5,0.9-0.9,1.2c0.2,0.4,0.3,0.8,0.3,1.1c0.2,0.8,0.2,1.6,0,2.4c-0.2,0.8-0.6,1.6-1.2,2.2
	c-0.7,0.7-1.4,1.1-2,1.2c1.3,0.2,2.5-0.3,3.5-1.3c0.7-0.7,1.1-1.5,1.3-2.4s0.1-1.7-0.1-2.5C42.5,229.3,42.3,228.6,41.9,227.8z"/>
<path class="st6" d="M39.6,423L39.6,423c2.2,0,4.1,0.5,6,1.6s3.3,2.5,4.4,4.4c1.1,1.9,1.6,3.8,1.6,6l0,0l0,0c0,2.2-0.5,4.1-1.6,6
	s-2.5,3.3-4.4,4.4s-3.8,1.6-6,1.6s-4.1-0.5-6-1.6c-1.9-1.1-3.3-2.5-4.4-4.4s-1.6-3.8-1.6-6s0.5-4.1,1.6-6s2.5-3.3,4.4-4.4
	C35.5,423.5,37.4,423,39.6,423L39.6,423z"/>
<path class="st3" d="M40.8,352.8L40.8,352.8L40.8,352.8c0.2,0,0.4,0.1,0.6,0.2c0.2,0.1,0.3,0.2,0.4,0.4c0.1,0.2,0.2,0.4,0.2,0.6l0,0
	l0,0c0,0.2-0.1,0.4-0.2,0.6c-0.1,0.2-0.2,0.3-0.4,0.4s-0.4,0.2-0.6,0.2s-0.4,0-0.6-0.2c-0.2-0.1-0.3-0.2-0.4-0.4
	c-0.1-0.2-0.2-0.4-0.2-0.6s0-0.4,0.2-0.6c0.1-0.2,0.2-0.3,0.4-0.4S40.5,352.8,40.8,352.8z"/>
<path class="st3" d="M23.3,352.8L23.3,352.8L23.3,352.8c0.2,0,0.4,0.1,0.6,0.2s0.3,0.2,0.4,0.4c0.1,0.2,0.2,0.4,0.2,0.6l0,0l0,0
	c0,0.2-0.1,0.4-0.2,0.6s-0.2,0.3-0.4,0.4c-0.2,0.1-0.4,0.2-0.6,0.2s-0.4,0-0.6-0.2c-0.2-0.1-0.3-0.2-0.4-0.4
	c-0.1-0.2-0.2-0.4-0.2-0.6s0.1-0.4,0.2-0.6s0.2-0.3,0.4-0.4C22.9,352.9,23.1,352.8,23.3,352.8z"/>
<path class="st3" d="M32.1,352.8L32.1,352.8L32.1,352.8c0.2,0,0.4,0.1,0.6,0.2c0.2,0.1,0.3,0.2,0.4,0.4c0.1,0.2,0.2,0.4,0.2,0.6l0,0
	l0,0c0,0.2-0.1,0.4-0.2,0.6c-0.1,0.2-0.2,0.3-0.4,0.4s-0.4,0.2-0.6,0.2c-0.2,0-0.4,0-0.6-0.2c-0.2-0.1-0.3-0.2-0.4-0.4
	c-0.1-0.2-0.2-0.4-0.2-0.6s0.1-0.4,0.2-0.6s0.2-0.3,0.4-0.4C31.6,352.9,31.8,352.8,32.1,352.8z"/>
<path class="st3" d="M25.3,356.7c0,0,0.8,2.8,1.7,3.6c0.9,0.9,1.1,0.9,2,0.9s1.4-0.2,2-0.9c0.6-0.6,0.9-1.4,0.8-2.2
	c-0.1-0.5-0.3-1.1-0.6-1.9c0.3,0.1,0.6,0.2,0.8,0.2c0.3,0,0.5,0,0.7-0.1c0.3,0.7,0.4,1.3,0.5,1.9c0.1,1.1-0.2,2.1-1.1,2.9
	c-0.8,0.8-1.9,1.3-3.1,1.4c-1.3,0.1-1.8-0.2-3.1-1.4c-0.5-0.5-1.1-1.3-1.9-2.4L25.3,356.7z M25.3,356.7L25.3,356.7L25.3,356.7z
	 M29.7,353.4c-0.5-0.9-0.8-1.7-1-2.2c-0.3-0.8-0.3-1.6-0.2-2.3c0.1-0.8,0.5-1.5,1.1-2.1c0.6-0.7,1.5-1.1,2.5-1.3
	c-0.4,0.2-0.7,0.5-1,0.7c-0.6,0.6-1.1,1.4-1.3,2.2c-0.2,0.8-0.1,1.6,0.2,2.3c0.1,0.4,0.3,0.8,0.6,1.4
	C30.2,352.4,29.9,352.8,29.7,353.4z M29.7,353.4L29.7,353.4L29.7,353.4z M39.3,351.8l1.2-1.9c-0.6-0.7-1.1-1.4-1.6-1.9
	c-1.4-1.4-2.7-2.2-4-2.4c-1.3-0.2-2.4,0.2-3.3,1.1c-0.8,0.8-1.1,1.8-1,2.7c0.1,0.6,0.3,1.2,0.8,2.3c0.2-0.1,0.3-0.1,0.5-0.1
	c0.3,0,0.7,0,1,0.1c-0.5-1-0.7-1.8-0.8-2.3c-0.1-0.7,0.1-1.4,0.6-1.9s1.2-0.7,2.1-0.5c0.9,0.2,1.7,0.7,2.6,1.5
	C38.3,349.5,39.2,351.8,39.3,351.8z M39.3,351.8L39.3,351.8L39.3,351.8z M34.3,354.8c-0.2,0.5-0.5,0.9-0.9,1.2
	c0.2,0.4,0.3,0.8,0.3,1.1c0.2,0.8,0.2,1.6,0,2.4s-0.6,1.6-1.2,2.2c-0.7,0.7-1.4,1.1-2,1.2c1.3,0.2,2.5-0.3,3.5-1.3
	c0.7-0.7,1.1-1.5,1.3-2.4s0.1-1.7-0.1-2.5C35,356.3,34.7,355.6,34.3,354.8z"/>
<path class="st3" d="M48.4,433.8L48.4,433.8L48.4,433.8c0.2,0,0.4,0.1,0.6,0.2c0.2,0.1,0.3,0.2,0.4,0.4c0.1,0.2,0.2,0.4,0.2,0.6l0,0
	l0,0c0,0.2-0.1,0.4-0.2,0.6c-0.1,0.2-0.2,0.3-0.4,0.4s-0.4,0.2-0.6,0.2s-0.4,0-0.6-0.2c-0.2-0.1-0.3-0.2-0.4-0.4
	c-0.1-0.2-0.2-0.4-0.2-0.6s0-0.4,0.2-0.6c0.1-0.2,0.2-0.3,0.4-0.4S48.1,433.8,48.4,433.8z"/>
<path class="st3" d="M30.9,433.8L30.9,433.8L30.9,433.8c0.2,0,0.4,0.1,0.6,0.2s0.3,0.2,0.4,0.4c0.1,0.2,0.2,0.4,0.2,0.6l0,0l0,0
	c0,0.2-0.1,0.4-0.2,0.6s-0.2,0.3-0.4,0.4c-0.2,0.1-0.4,0.2-0.6,0.2s-0.4,0-0.6-0.2c-0.2-0.1-0.3-0.2-0.4-0.4
	c-0.1-0.2-0.2-0.4-0.2-0.6s0.1-0.4,0.2-0.6s0.2-0.3,0.4-0.4C30.5,433.9,30.7,433.8,30.9,433.8z"/>
<path class="st3" d="M39.7,433.8L39.7,433.8L39.7,433.8c0.2,0,0.4,0.1,0.6,0.2c0.2,0.1,0.3,0.2,0.4,0.4c0.1,0.2,0.2,0.4,0.2,0.6l0,0
	l0,0c0,0.2-0.1,0.4-0.2,0.6c-0.1,0.2-0.2,0.3-0.4,0.4s-0.4,0.2-0.6,0.2c-0.2,0-0.4,0-0.6-0.2c-0.2-0.1-0.3-0.2-0.4-0.4
	c-0.1-0.2-0.2-0.4-0.2-0.6s0.1-0.4,0.2-0.6s0.2-0.3,0.4-0.4C39.2,433.9,39.4,433.8,39.7,433.8z"/>
<path class="st3" d="M32.9,437.7c0,0,0.8,2.8,1.7,3.6c0.9,0.9,1.1,0.9,2,0.9s1.4-0.2,2-0.9c0.6-0.6,0.9-1.4,0.8-2.2
	c-0.1-0.5-0.3-1.1-0.6-1.9c0.3,0.1,0.6,0.2,0.8,0.2c0.3,0,0.5,0,0.7-0.1c0.3,0.7,0.4,1.3,0.5,1.9c0.1,1.1-0.2,2.1-1.1,2.9
	c-0.8,0.8-1.9,1.3-3.1,1.4c-1.3,0.1-1.8-0.2-3.1-1.4c-0.5-0.5-1.1-1.3-1.9-2.4L32.9,437.7z M32.9,437.7L32.9,437.7L32.9,437.7z
	 M37.3,434.4c-0.5-0.9-0.8-1.7-1-2.2c-0.3-0.8-0.3-1.6-0.2-2.3c0.1-0.8,0.5-1.5,1.1-2.1c0.6-0.7,1.5-1.1,2.5-1.3
	c-0.4,0.2-0.7,0.5-1,0.7c-0.6,0.6-1.1,1.4-1.3,2.2c-0.2,0.8-0.1,1.6,0.2,2.3c0.1,0.4,0.3,0.8,0.6,1.4
	C37.8,433.4,37.5,433.8,37.3,434.4z M37.3,434.4L37.3,434.4L37.3,434.4z M46.9,432.8l1.2-1.9c-0.6-0.7-1.1-1.4-1.6-1.9
	c-1.4-1.4-2.7-2.2-4-2.4c-1.3-0.2-2.4,0.2-3.3,1.1c-0.8,0.8-1.1,1.8-1,2.7c0.1,0.6,0.3,1.2,0.8,2.3c0.2-0.1,0.3-0.1,0.5-0.1
	c0.3,0,0.7,0,1,0.1c-0.5-1-0.7-1.8-0.8-2.3c-0.1-0.7,0.1-1.4,0.6-1.9s1.2-0.7,2.1-0.5c0.9,0.2,1.7,0.7,2.6,1.5
	C45.9,430.5,46.8,432.8,46.9,432.8z M46.9,432.8L46.9,432.8L46.9,432.8z M41.9,435.8c-0.2,0.5-0.5,0.9-0.9,1.2
	c0.2,0.4,0.3,0.8,0.3,1.1c0.2,0.8,0.2,1.6,0,2.4s-0.6,1.6-1.2,2.2c-0.7,0.7-1.4,1.1-2,1.2c1.3,0.2,2.5-0.3,3.5-1.3
	c0.7-0.7,1.1-1.5,1.3-2.4s0.1-1.7-0.1-2.5C42.6,437.3,42.3,436.6,41.9,435.8z"/>
</svg>
